<svg width="14" height="16" viewBox="0 0 14 16" fill="none" xmlns="http://www.w3.org/2000/svg">
<path d="M8.33333 7.33325V11.3333M1 3.99992H13H1ZM11.6667 3.99992V13.3333C11.6667 13.6869 11.5262 14.026 11.2761 14.2761C11.0261 14.5261 10.687 14.6666 10.3333 14.6666H3.66667C3.31304 14.6666 2.97391 14.5261 2.72386 14.2761C2.47381 14.026 2.33333 13.6869 2.33333 13.3333V3.99992H11.6667ZM4.33333 3.99992V2.66659C4.33333 2.31296 4.47381 1.97382 4.72386 1.72378C4.97391 1.47373 5.31304 1.33325 5.66667 1.33325H8.33333C8.68696 1.33325 9.02609 1.47373 9.27614 1.72378C9.52619 1.97382 9.66667 2.31296 9.66667 2.66659V3.99992H4.33333ZM5.66667 7.33325V11.3333V7.33325Z" stroke="#FBFBFB" stroke-width="1.5" stroke-linecap="round" stroke-linejoin="round"/>
</svg>
