<svg width="16" height="15" viewBox="0 0 16 15" fill="none" xmlns="http://www.w3.org/2000/svg">
<path d="M14.5685 2.02134C14.1828 1.62773 13.7248 1.31549 13.2207 1.10246C12.7167 0.889432 12.1764 0.779785 11.6308 0.779785C11.0852 0.779785 10.5449 0.889432 10.0409 1.10246C9.53683 1.31549 9.07886 1.62773 8.69315 2.02134L7.89265 2.83784L7.09216 2.02134C6.31304 1.22665 5.25633 0.780197 4.15449 0.780197C3.05265 0.780197 1.99594 1.22665 1.21682 2.02134C0.437704 2.81603 8.20934e-09 3.89387 0 5.01773C-8.20934e-09 6.14159 0.437704 7.21943 1.21682 8.01412L2.01732 8.83062L7.89265 14.8234L13.768 8.83062L14.5685 8.01412C14.9544 7.62069 15.2605 7.15357 15.4694 6.63944C15.6782 6.12531 15.7857 5.57425 15.7857 5.01773C15.7857 4.46121 15.6782 3.91015 15.4694 3.39602C15.2605 2.88189 14.9544 2.41477 14.5685 2.02134Z" fill="#2C65F6"/>
</svg>
