<svg width="22" height="22" viewBox="0 0 22 22" fill="none" xmlns="http://www.w3.org/2000/svg">
<g clip-path="url(#clip0_3110_5674)">
<path d="M18.7429 9.18827C18.7429 15.3019 10.8825 20.5421 10.8825 20.5421C10.8825 20.5421 3.02222 15.3019 3.02222 9.18827C3.02222 7.10358 3.85036 5.10428 5.32445 3.63018C6.79855 2.15608 8.79786 1.32794 10.8825 1.32794C12.9672 1.32794 14.9665 2.15608 16.4406 3.63018C17.9147 5.10428 18.7429 7.10358 18.7429 9.18827Z" stroke="#999999" stroke-width="1.01325" stroke-linecap="round" stroke-linejoin="round"/>
<path d="M10.8826 11.8083C12.3296 11.8083 13.5027 10.6353 13.5027 9.18823C13.5027 7.74118 12.3296 6.56812 10.8826 6.56812C9.43551 6.56812 8.26245 7.74118 8.26245 9.18823C8.26245 10.6353 9.43551 11.8083 10.8826 11.8083Z" stroke="#999999" stroke-width="1.01325" stroke-linecap="round" stroke-linejoin="round"/>
</g>
<defs>
<clipPath id="clip0_3110_5674">
<rect width="20.9609" height="20.9609" fill="white" transform="translate(0.4021 0.454529)"/>
</clipPath>
</defs>
</svg>
