<svg width="22" height="22" viewBox="0 0 22 22" fill="none" xmlns="http://www.w3.org/2000/svg">
<g clip-path="url(#clip0)">
<path d="M18.743 9.18797C18.743 15.3016 10.8827 20.5418 10.8827 20.5418C10.8827 20.5418 3.02234 15.3016 3.02234 9.18797C3.02234 7.10328 3.85048 5.10397 5.32458 3.62987C6.79867 2.15578 8.79798 1.32764 10.8827 1.32764C12.9674 1.32764 14.9667 2.15578 16.4408 3.62987C17.9149 5.10397 18.743 7.10328 18.743 9.18797Z" stroke="#999999" stroke-width="1.01325" stroke-linecap="round" stroke-linejoin="round"/>
<path d="M10.8827 11.8081C12.3297 11.8081 13.5028 10.635 13.5028 9.18798C13.5028 7.74093 12.3297 6.56787 10.8827 6.56787C9.43564 6.56787 8.26257 7.74093 8.26257 9.18798C8.26257 10.635 9.43564 11.8081 10.8827 11.8081Z" stroke="#999999" stroke-width="1.01325" stroke-linecap="round" stroke-linejoin="round"/>
</g>
<defs>
<clipPath id="clip0">
<rect width="20.9609" height="20.9609" fill="white" transform="translate(0.402222 0.454346)"/>
</clipPath>
</defs>
</svg>
