<svg width="18" height="11" viewBox="0 0 18 11" fill="none" xmlns="http://www.w3.org/2000/svg">
<path d="M6.31094 2.63469C6.6539 2.63469 6.99687 2.63469 7.33983 2.63469C8.15511 2.63469 8.97234 2.63469 9.78762 2.63469C10.7734 2.63469 11.7611 2.63469 12.7469 2.63469C13.6053 2.63469 14.4637 2.63469 15.3221 2.63469C15.7356 2.63469 16.1511 2.64252 16.5646 2.63469C16.5705 2.63469 16.5764 2.63469 16.5822 2.63469C16.8899 2.63469 17.1839 2.36457 17.1702 2.04748C17.1565 1.72843 16.9115 1.46027 16.5822 1.46027C16.2393 1.46027 15.8963 1.46027 15.5533 1.46027C14.7381 1.46027 13.9208 1.46027 13.1056 1.46027C12.1198 1.46027 11.132 1.46027 10.1463 1.46027C9.28787 1.46027 8.42948 1.46027 7.57109 1.46027C7.15757 1.46027 6.74209 1.45244 6.32857 1.46027C6.32269 1.46027 6.31682 1.46027 6.31094 1.46027C6.00325 1.46027 5.70928 1.73038 5.723 2.04748C5.73671 2.36653 5.98169 2.63469 6.31094 2.63469Z" fill="black"/>
<path d="M0.588402 2.63462C1.29785 2.63462 2.0073 2.63462 2.71675 2.63462C2.81669 2.63462 2.9186 2.63462 3.01855 2.63462C3.32624 2.63462 3.62021 2.36451 3.60649 2.04741C3.59278 1.72836 3.3478 1.46021 3.01855 1.46021C2.30911 1.46021 1.59966 1.46021 0.890211 1.46021C0.790262 1.46021 0.688352 1.46021 0.588402 1.46021C0.280713 1.46021 -0.0132565 1.73032 0.000462053 2.04741C0.0141807 2.36647 0.259156 2.63462 0.588402 2.63462Z" fill="black"/>
<path d="M4.66481 3.69367C5.57724 3.69367 6.31692 2.95492 6.31692 2.04361C6.31692 1.13231 5.57724 0.393555 4.66481 0.393555C3.75237 0.393555 3.0127 1.13231 3.0127 2.04361C3.0127 2.95492 3.75237 3.69367 4.66481 3.69367Z" fill="black"/>
<path d="M4.66469 3.30216C4.62353 3.30216 4.58238 3.3002 4.54122 3.29825C4.52946 3.29825 4.47851 3.3002 4.47459 3.29237C4.47459 3.29237 4.57454 3.30999 4.4981 3.29433C4.41971 3.28063 4.34328 3.26301 4.26685 3.23952C4.24529 3.23169 4.1571 3.21408 4.14338 3.1945C4.14534 3.19646 4.23157 3.23561 4.16494 3.20233C4.14926 3.1945 4.13358 3.18668 4.1179 3.17885C4.04539 3.14166 3.9768 3.09859 3.9082 3.05357C3.90429 3.05162 3.90037 3.0477 3.89841 3.04574C3.86509 3.0203 3.87097 3.02617 3.91604 3.0614C3.91016 3.0614 3.87881 3.03009 3.87685 3.02813C3.85137 3.0066 3.82589 2.98311 3.80042 2.95962C3.77298 2.93222 3.74554 2.90481 3.72006 2.87741C3.70635 2.86175 3.69067 2.84609 3.67695 2.82848C3.66715 2.81673 3.62991 2.75605 3.65931 2.8089C3.69067 2.86567 3.64951 2.7952 3.64363 2.78737C3.63383 2.77367 3.62403 2.75997 3.61424 2.74431C3.59464 2.71495 3.577 2.68559 3.56132 2.65623C3.53976 2.61904 3.52212 2.57989 3.50253 2.54074C3.47901 2.49377 3.49077 2.54857 3.51037 2.56228C3.49665 2.55249 3.48685 2.50355 3.48293 2.48985C3.45745 2.41939 3.43785 2.34697 3.42217 2.27454C3.41826 2.25693 3.41434 2.23931 3.41238 2.22169C3.40062 2.14927 3.39278 2.21778 3.41238 2.23344C3.3967 2.21974 3.40258 2.12187 3.40258 2.09838C3.40062 2.02009 3.4065 1.94375 3.41042 1.86545C3.41434 1.80673 3.39082 1.96528 3.40846 1.8772C3.41238 1.85958 3.41434 1.84196 3.41826 1.82435C3.42609 1.78129 3.43785 1.73822 3.44961 1.69516C3.45941 1.66189 3.46921 1.62861 3.48097 1.59534C3.48881 1.57576 3.49665 1.55423 3.50449 1.53466C3.52212 1.48181 3.46137 1.62274 3.50057 1.54445C3.53584 1.47594 3.57112 1.40743 3.61228 1.34088C3.62207 1.32718 3.63187 1.31152 3.64167 1.29782C3.64755 1.28999 3.68675 1.21952 3.65735 1.27629C3.62795 1.33109 3.66715 1.26454 3.67499 1.25671C3.68675 1.24301 3.69655 1.23127 3.70831 1.21757C3.75926 1.1608 3.81413 1.106 3.87293 1.05706C3.88273 1.04923 3.9474 1.01008 3.89253 1.03944C3.84353 1.06685 3.89057 1.0414 3.90429 1.03162C3.93564 1.01008 3.96896 0.988553 4.00032 0.968979C4.02971 0.951363 4.05911 0.933747 4.09047 0.918088C4.11006 0.908301 4.12966 0.898514 4.14926 0.888727C4.16102 0.882855 4.17278 0.876983 4.18454 0.873068C4.13554 0.892642 4.12378 0.898514 4.15122 0.88677C4.22177 0.863282 4.29037 0.835879 4.36288 0.818262C4.40207 0.808475 4.44127 0.800646 4.48047 0.792816C4.4981 0.790859 4.55298 0.788902 4.49418 0.790859C4.42755 0.790859 4.52162 0.788902 4.53534 0.788902C4.61373 0.78303 4.69016 0.78303 4.76856 0.786944C4.79207 0.788902 4.81363 0.790859 4.83519 0.792816C4.89006 0.796731 4.7568 0.779115 4.81167 0.788902C4.86067 0.798689 4.9077 0.806518 4.95474 0.818262C5.02333 0.835879 5.088 0.85741 5.15464 0.880898C5.23695 0.910258 5.0978 0.847623 5.14484 0.876983C5.16248 0.888727 5.18403 0.8946 5.20363 0.904386C5.24283 0.92396 5.28006 0.945491 5.3173 0.967022C5.3467 0.984638 5.37609 1.00421 5.40353 1.02379C5.40353 1.02379 5.44469 1.04923 5.44469 1.05315C5.44273 1.03357 5.38197 1.0003 5.43685 1.04727C5.4976 1.10012 5.55836 1.15493 5.61127 1.21561C5.62695 1.23322 5.67594 1.27237 5.6779 1.2939C5.6681 1.2802 5.65831 1.26846 5.64851 1.25475C5.65635 1.26454 5.66418 1.27629 5.67202 1.28607C5.68182 1.29977 5.69162 1.31348 5.70142 1.32913C5.7465 1.39764 5.78373 1.47007 5.82097 1.54249C5.85429 1.60904 5.81509 1.52096 5.81313 1.52096C5.82293 1.52879 5.83273 1.56793 5.83665 1.58163C5.85037 1.61882 5.86212 1.65602 5.87388 1.69321C5.88368 1.72648 5.89152 1.76171 5.89936 1.79499C5.90328 1.8126 5.9072 1.83022 5.90916 1.84784C5.91308 1.86545 5.91504 1.88307 5.917 1.90069C5.91504 1.88307 5.91308 1.86741 5.90916 1.84979C5.89936 1.92613 5.92092 2.01617 5.91896 2.09447C5.917 2.13166 5.91308 2.16689 5.91112 2.20408C5.90524 2.29412 5.92484 2.13557 5.91308 2.19429C5.90916 2.21582 5.90524 2.23735 5.90132 2.26084C5.88368 2.35088 5.85625 2.43896 5.82489 2.52509C5.81901 2.5427 5.78961 2.58185 5.82097 2.53879C5.85625 2.4879 5.80921 2.56032 5.80333 2.57402C5.78373 2.61317 5.76413 2.65036 5.74062 2.68755C5.7171 2.72865 5.68966 2.76584 5.66223 2.80499C5.63283 2.85001 5.67594 2.80695 5.6779 2.78737C5.6779 2.80303 5.63675 2.83631 5.62891 2.84609C5.57207 2.91069 5.51132 2.97136 5.44665 3.02617C5.43881 3.03204 5.41333 3.05749 5.40745 3.05945C5.45057 3.02813 5.45841 3.0203 5.43489 3.03792C5.42509 3.04575 5.41333 3.05357 5.40353 3.05945C5.36825 3.08293 5.33298 3.10642 5.29574 3.12795C5.25851 3.14949 5.22127 3.16906 5.18207 3.18863C5.18403 3.18863 5.13896 3.21212 5.13504 3.21016C5.18991 3.18863 5.19579 3.18472 5.1566 3.20038C5.14876 3.20429 5.14092 3.20625 5.13308 3.21016C5.05077 3.24148 4.9665 3.26497 4.88027 3.28259C4.85871 3.2865 4.83715 3.29042 4.81363 3.29433C4.78423 3.29825 4.79599 3.29825 4.85087 3.28846C4.83715 3.29042 4.82343 3.29237 4.80971 3.29237C4.76464 3.3002 4.71564 3.30216 4.66469 3.30216C4.45891 3.30412 4.26293 3.48028 4.27273 3.69363C4.28253 3.90503 4.44519 4.08706 4.66469 4.08511C5.53288 4.07728 6.28936 3.53117 6.59117 2.72278C6.87926 1.95158 6.62449 1.01008 5.98559 0.487467C5.64263 0.207564 5.24479 0.0431451 4.79991 0.00595516C4.39032 -0.0273201 3.95916 0.080335 3.60836 0.291731C2.86363 0.743882 2.49519 1.61882 2.66373 2.46832C2.84991 3.40394 3.72006 4.07532 4.66273 4.08315C4.86851 4.08511 5.06449 3.90111 5.05469 3.69168C5.04685 3.48028 4.88419 3.30412 4.66469 3.30216Z" fill="black"/>
<path d="M13.9541 9.32896C14.7224 9.32896 15.4906 9.32896 16.2569 9.32896C16.3647 9.32896 16.4725 9.32896 16.5803 9.32896C16.8879 9.32896 17.1819 9.05884 17.1682 8.74175C17.1545 8.4227 16.9095 8.15454 16.5803 8.15454C15.812 8.15454 15.0438 8.15454 14.2775 8.15454C14.1697 8.15454 14.0619 8.15454 13.9541 8.15454C13.6464 8.15454 13.3525 8.42466 13.3662 8.74175C13.3799 9.0608 13.6249 9.32896 13.9541 9.32896Z" fill="black"/>
<path d="M0.588402 9.32902C0.923528 9.32902 1.26061 9.32902 1.59574 9.32902C2.39534 9.32902 3.19494 9.32902 3.99453 9.32902C4.96463 9.32902 5.93473 9.32902 6.90484 9.32902C7.74363 9.32902 8.58242 9.32902 9.42122 9.32902C9.82886 9.32902 10.2365 9.33685 10.6441 9.32902C10.65 9.32902 10.6559 9.32902 10.6618 9.32902C10.9695 9.32902 11.2634 9.0589 11.2497 8.74181C11.236 8.42276 10.991 8.1546 10.6618 8.1546C10.3266 8.1546 9.98956 8.1546 9.65443 8.1546C8.85484 8.1546 8.05524 8.1546 7.25564 8.1546C6.28554 8.1546 5.31544 8.1546 4.34534 8.1546C3.50654 8.1546 2.66775 8.1546 1.82895 8.1546C1.42132 8.1546 1.01368 8.14677 0.60604 8.1546C0.600161 8.1546 0.594281 8.1546 0.588402 8.1546C0.280713 8.1546 -0.0132565 8.42472 0.000462053 8.74181C0.0141806 9.06086 0.259156 9.32902 0.588402 9.32902Z" fill="black"/>
<path d="M12.3081 10.3878C13.2206 10.3878 13.9602 9.64901 13.9602 8.73771C13.9602 7.8264 13.2206 7.08765 12.3081 7.08765C11.3957 7.08765 10.656 7.8264 10.656 8.73771C10.656 9.64901 11.3957 10.3878 12.3081 10.3878Z" fill="black"/>
<path d="M12.3081 9.99625C12.267 9.99625 12.2258 9.99429 12.1847 9.99234C12.1729 9.99234 12.1219 9.99429 12.118 9.98646C12.118 9.98646 12.218 10.0041 12.1415 9.98842C12.0631 9.97472 11.9867 9.9571 11.9103 9.93362C11.8887 9.92579 11.8005 9.90817 11.7868 9.8886C11.7888 9.89055 11.875 9.9297 11.8084 9.89643C11.7927 9.8886 11.777 9.88077 11.7613 9.87294C11.6888 9.83575 11.6202 9.79269 11.5516 9.74767C11.5477 9.74571 11.5438 9.74179 11.5418 9.73984C11.5085 9.71439 11.5144 9.72026 11.5595 9.7555C11.5536 9.7555 11.5222 9.72418 11.5203 9.72222C11.4948 9.70069 11.4693 9.6772 11.4438 9.65371C11.4164 9.62631 11.389 9.59891 11.3635 9.5715C11.3498 9.55584 11.3341 9.54018 11.3204 9.52257C11.3106 9.51082 11.2733 9.45015 11.3027 9.50299C11.3341 9.55976 11.2929 9.48929 11.2871 9.48146C11.2773 9.46776 11.2675 9.45406 11.2577 9.4384C11.2381 9.40904 11.2204 9.37968 11.2048 9.35032C11.1832 9.31313 11.1656 9.27398 11.146 9.23484C11.1224 9.18786 11.1342 9.24267 11.1538 9.25637C11.1401 9.24658 11.1303 9.19765 11.1264 9.18394C11.1009 9.11348 11.0813 9.04106 11.0656 8.96863C11.0617 8.95102 11.0578 8.9334 11.0558 8.91579C11.044 8.84336 11.0362 8.91187 11.0558 8.92753C11.0401 8.91383 11.046 8.81596 11.046 8.79247C11.044 8.71418 11.0499 8.63784 11.0538 8.55954C11.0578 8.50082 11.0343 8.65937 11.0519 8.57129C11.0558 8.55367 11.0578 8.53606 11.0617 8.51844C11.0695 8.47538 11.0813 8.43232 11.093 8.38925C11.1028 8.35598 11.1126 8.3227 11.1244 8.28943C11.1322 8.26985 11.1401 8.24832 11.1479 8.22875C11.1656 8.1759 11.1048 8.31683 11.144 8.23854C11.1793 8.17003 11.2146 8.10152 11.2557 8.03497C11.2655 8.02127 11.2753 8.00561 11.2851 7.99191C11.291 7.98408 11.3302 7.91361 11.3008 7.97038C11.2714 8.02518 11.3106 7.95863 11.3184 7.9508C11.3302 7.9371 11.34 7.92536 11.3517 7.91166C11.4027 7.85489 11.4576 7.80009 11.5164 7.75115C11.5262 7.74332 11.5908 7.70418 11.536 7.73354C11.487 7.76094 11.534 7.73549 11.5477 7.72571C11.5791 7.70418 11.6124 7.68264 11.6437 7.66307C11.6731 7.64545 11.7025 7.62784 11.7339 7.61218C11.7535 7.60239 11.7731 7.59261 11.7927 7.58282C11.8045 7.57695 11.8162 7.57108 11.828 7.56716C11.779 7.58673 11.7672 7.59261 11.7947 7.58086C11.8652 7.55737 11.9338 7.52997 12.0063 7.51235C12.0455 7.50257 12.0847 7.49474 12.1239 7.48691C12.1415 7.48495 12.1964 7.48299 12.1376 7.48495C12.071 7.48495 12.1651 7.48299 12.1788 7.48299C12.2572 7.47712 12.3336 7.47712 12.412 7.48104C12.4355 7.48299 12.4571 7.48495 12.4786 7.48691C12.5335 7.49082 12.4002 7.47321 12.4551 7.48299C12.5041 7.49278 12.5511 7.50061 12.5982 7.51235C12.6668 7.52997 12.7314 7.5515 12.7981 7.57499C12.8804 7.60435 12.7412 7.54171 12.7883 7.57107C12.8059 7.58282 12.8275 7.58869 12.8471 7.59848C12.8863 7.61805 12.9235 7.63958 12.9607 7.66111C12.9901 7.67873 13.0195 7.6983 13.047 7.71788C13.047 7.71788 13.0881 7.74332 13.0881 7.74724C13.0862 7.72766 13.0254 7.69439 13.0803 7.74137C13.141 7.79421 13.2018 7.84902 13.2547 7.9097C13.2704 7.92732 13.3194 7.96646 13.3213 7.98799C13.3115 7.97429 13.3017 7.96255 13.2919 7.94885C13.2998 7.95863 13.3076 7.97038 13.3155 7.98016C13.3253 7.99387 13.3351 8.00757 13.3449 8.02323C13.3899 8.09173 13.4272 8.16416 13.4644 8.23658C13.4977 8.30313 13.4585 8.21505 13.4566 8.21505C13.4664 8.22288 13.4762 8.26203 13.4801 8.27573C13.4938 8.31292 13.5056 8.35011 13.5173 8.3873C13.5271 8.42057 13.535 8.4558 13.5428 8.48908C13.5467 8.5067 13.5506 8.52431 13.5526 8.54193C13.5565 8.55954 13.5585 8.57716 13.5604 8.59478C13.5585 8.57716 13.5565 8.5615 13.5526 8.54389C13.5428 8.62022 13.5644 8.71026 13.5624 8.78856C13.5604 8.82575 13.5565 8.86098 13.5546 8.89817C13.5487 8.98821 13.5683 8.82966 13.5565 8.88838C13.5526 8.90991 13.5487 8.93144 13.5448 8.95493C13.5271 9.04497 13.4997 9.13305 13.4683 9.21918C13.4624 9.23679 13.433 9.27594 13.4644 9.23288C13.4997 9.18199 13.4526 9.25441 13.4468 9.26811C13.4272 9.30726 13.4076 9.34445 13.384 9.38164C13.3605 9.42274 13.3331 9.45993 13.3057 9.49908C13.2763 9.5441 13.3194 9.50104 13.3213 9.48146C13.3213 9.49712 13.2802 9.5304 13.2723 9.54019C13.2155 9.60478 13.1548 9.66546 13.0901 9.72026C13.0822 9.72614 13.0568 9.75158 13.0509 9.75354C13.094 9.72222 13.1018 9.71439 13.0783 9.73201C13.0685 9.73984 13.0568 9.74767 13.047 9.75354C13.0117 9.77703 12.9764 9.80052 12.9392 9.82205C12.9019 9.84358 12.8647 9.86315 12.8255 9.88272C12.8275 9.88272 12.7824 9.90621 12.7785 9.90425C12.8333 9.88272 12.8392 9.87881 12.8 9.89447C12.7922 9.89838 12.7844 9.90034 12.7765 9.90425C12.6942 9.93557 12.6099 9.95906 12.5237 9.97668C12.5021 9.98059 12.4806 9.98451 12.4571 9.98842C12.4277 9.99234 12.4394 9.99234 12.4943 9.98255C12.4806 9.98451 12.4669 9.98646 12.4531 9.98646C12.4081 9.99429 12.3591 9.99625 12.3081 9.99625C12.1023 9.99821 11.9064 10.1744 11.9162 10.3877C11.926 10.5991 12.0886 10.7812 12.3081 10.7792C13.1763 10.7714 13.9328 10.2253 14.2346 9.41687C14.5227 8.64567 14.2679 7.70418 13.629 7.18156C13.2861 6.90166 12.8882 6.73724 12.4433 6.70005C12.0337 6.66677 11.6026 6.77443 11.2518 6.98582C10.5071 7.43797 10.1386 8.31292 10.3072 9.16241C10.4933 10.098 11.3635 10.7694 12.3062 10.7772C12.5119 10.7792 12.7079 10.5952 12.6981 10.3858C12.6903 10.1744 12.5276 9.99821 12.3081 9.99625Z" fill="black"/>
</svg>
