<svg width="22" height="22" viewBox="0 0 22 22" fill="none" xmlns="http://www.w3.org/2000/svg">
<g clip-path="url(#clip0)">
<path d="M18.7429 9.18797C18.7429 15.3016 10.8825 20.5418 10.8825 20.5418C10.8825 20.5418 3.02222 15.3016 3.02222 9.18797C3.02222 7.10328 3.85036 5.10397 5.32445 3.62987C6.79855 2.15578 8.79786 1.32764 10.8825 1.32764C12.9672 1.32764 14.9665 2.15578 16.4406 3.62987C17.9147 5.10397 18.7429 7.10328 18.7429 9.18797Z" stroke="#999999" stroke-width="1.01325" stroke-linecap="round" stroke-linejoin="round"/>
<path d="M10.8826 11.8081C12.3296 11.8081 13.5027 10.635 13.5027 9.18798C13.5027 7.74093 12.3296 6.56787 10.8826 6.56787C9.43551 6.56787 8.26245 7.74093 8.26245 9.18798C8.26245 10.635 9.43551 11.8081 10.8826 11.8081Z" stroke="#999999" stroke-width="1.01325" stroke-linecap="round" stroke-linejoin="round"/>
</g>
<defs>
<clipPath id="clip0">
<rect width="20.9609" height="20.9609" fill="white" transform="translate(0.4021 0.454346)"/>
</clipPath>
</defs>
</svg>
