<svg width="14" height="13" viewBox="0 0 14 13" fill="none" xmlns="http://www.w3.org/2000/svg">
<path d="M14 0.00683784C13.3906 0.46616 12.7159 0.817467 12.0018 1.04723C11.6186 0.576342 11.1092 0.242587 10.5427 0.0911071C9.9761 -0.0603727 9.37968 -0.022269 8.83405 0.200265C8.28842 0.422799 7.81992 0.819026 7.4919 1.33536C7.16388 1.85169 6.99217 2.46321 7 3.08722V3.76721C5.88168 3.7982 4.77354 3.53317 3.77428 2.99572C2.77502 2.45828 1.91566 1.6651 1.27273 0.686834C1.27273 0.686834 -1.27273 6.8068 4.45455 9.52678C3.14397 10.4774 1.58274 10.954 0 10.8868C5.72727 14.2868 12.7273 10.8868 12.7273 3.06682C12.7267 2.87741 12.7096 2.68847 12.6764 2.50242C13.3258 1.818 13.7842 0.953877 14 0.00683784Z" fill="#699EF8"/>
</svg>
