<svg width="24" height="24" viewBox="0 0 24 24" fill="none" xmlns="http://www.w3.org/2000/svg">
<path d="M12 22C17.523 22 22 17.523 22 12C22 6.477 17.523 2 12 2C6.477 2 2 6.477 2 12C2 17.523 6.477 22 12 22Z" stroke="black" stroke-width="1.5" stroke-linecap="round" stroke-linejoin="round"/>
<path d="M7 14.5C7 14.5 7 18.5 12 18.5C17 18.5 17 14.5 17 14.5" stroke="black" stroke-width="1.5" stroke-linecap="round" stroke-linejoin="round"/>
<path d="M7 14.5C7 14.5 7 18.5 12 18.5C17 18.5 17 14.5 17 14.5H7Z" stroke="black" stroke-width="1.5" stroke-linecap="round" stroke-linejoin="round"/>
<path d="M15.5 10.3002C15.9418 10.3002 16.3 9.94202 16.3 9.5002C16.3 9.05837 15.9418 8.7002 15.5 8.7002C15.0581 8.7002 14.7 9.05837 14.7 9.5002C14.7 9.94202 15.0581 10.3002 15.5 10.3002Z" stroke="black" stroke-width="1.5" stroke-linecap="round" stroke-linejoin="round"/>
<path d="M8.49995 10.3002C8.94178 10.3002 9.29995 9.94202 9.29995 9.5002C9.29995 9.05837 8.94178 8.7002 8.49995 8.7002C8.05812 8.7002 7.69995 9.05837 7.69995 9.5002C7.69995 9.94202 8.05812 10.3002 8.49995 10.3002Z" stroke="black" stroke-width="1.5" stroke-linecap="round" stroke-linejoin="round"/>
</svg>
