<svg width="5" height="5" viewBox="0 0 5 5" fill="none" xmlns="http://www.w3.org/2000/svg">
<path d="M2.66469 3.30216C2.62353 3.30216 2.58238 3.3002 2.54122 3.29825C2.52946 3.29825 2.47851 3.3002 2.47459 3.29237C2.47459 3.29237 2.57454 3.30999 2.4981 3.29433C2.41971 3.28063 2.34328 3.26301 2.26685 3.23952C2.24529 3.23169 2.1571 3.21408 2.14338 3.1945C2.14534 3.19646 2.23157 3.23561 2.16494 3.20233C2.14926 3.1945 2.13358 3.18668 2.1179 3.17885C2.04539 3.14166 1.9768 3.09859 1.9082 3.05357C1.90429 3.05162 1.90037 3.0477 1.89841 3.04574C1.86509 3.0203 1.87097 3.02617 1.91604 3.0614C1.91016 3.0614 1.87881 3.03009 1.87685 3.02813C1.85137 3.0066 1.82589 2.98311 1.80042 2.95962C1.77298 2.93222 1.74554 2.90481 1.72006 2.87741C1.70635 2.86175 1.69067 2.84609 1.67695 2.82848C1.66715 2.81673 1.62991 2.75605 1.65931 2.8089C1.69067 2.86567 1.64951 2.7952 1.64363 2.78737C1.63383 2.77367 1.62403 2.75997 1.61424 2.74431C1.59464 2.71495 1.577 2.68559 1.56132 2.65623C1.53976 2.61904 1.52212 2.57989 1.50253 2.54074C1.47901 2.49377 1.49077 2.54857 1.51037 2.56228C1.49665 2.55249 1.48685 2.50355 1.48293 2.48985C1.45745 2.41939 1.43785 2.34697 1.42217 2.27454C1.41826 2.25693 1.41434 2.23931 1.41238 2.22169C1.40062 2.14927 1.39278 2.21778 1.41238 2.23344C1.3967 2.21974 1.40258 2.12187 1.40258 2.09838C1.40062 2.02009 1.4065 1.94375 1.41042 1.86545C1.41434 1.80673 1.39082 1.96528 1.40846 1.8772C1.41238 1.85958 1.41434 1.84196 1.41826 1.82435C1.42609 1.78129 1.43785 1.73822 1.44961 1.69516C1.45941 1.66189 1.46921 1.62861 1.48097 1.59534C1.48881 1.57576 1.49665 1.55423 1.50449 1.53466C1.52212 1.48181 1.46137 1.62274 1.50057 1.54445C1.53584 1.47594 1.57112 1.40743 1.61228 1.34088C1.62207 1.32718 1.63187 1.31152 1.64167 1.29782C1.64755 1.28999 1.68675 1.21952 1.65735 1.27629C1.62795 1.33109 1.66715 1.26454 1.67499 1.25671C1.68675 1.24301 1.69655 1.23127 1.70831 1.21757C1.75926 1.1608 1.81413 1.106 1.87293 1.05706C1.88273 1.04923 1.9474 1.01008 1.89253 1.03944C1.84353 1.06685 1.89057 1.0414 1.90429 1.03162C1.93564 1.01008 1.96896 0.988553 2.00032 0.968979C2.02971 0.951363 2.05911 0.933747 2.09047 0.918088C2.11006 0.908301 2.12966 0.898514 2.14926 0.888727C2.16102 0.882855 2.17278 0.876983 2.18454 0.873068C2.13554 0.892642 2.12378 0.898514 2.15122 0.88677C2.22177 0.863282 2.29037 0.835879 2.36288 0.818262C2.40207 0.808475 2.44127 0.800646 2.48047 0.792816C2.4981 0.790859 2.55298 0.788902 2.49418 0.790859C2.42755 0.790859 2.52162 0.788902 2.53534 0.788902C2.61373 0.78303 2.69016 0.78303 2.76856 0.786944C2.79207 0.788902 2.81363 0.790859 2.83519 0.792816C2.89006 0.796731 2.7568 0.779115 2.81167 0.788902C2.86067 0.798689 2.9077 0.806518 2.95474 0.818262C3.02333 0.835879 3.088 0.85741 3.15464 0.880898C3.23695 0.910258 3.0978 0.847623 3.14484 0.876983C3.16248 0.888727 3.18403 0.8946 3.20363 0.904386C3.24283 0.92396 3.28006 0.945491 3.3173 0.967022C3.3467 0.984638 3.37609 1.00421 3.40353 1.02379C3.40353 1.02379 3.44469 1.04923 3.44469 1.05315C3.44273 1.03357 3.38197 1.0003 3.43685 1.04727C3.4976 1.10012 3.55836 1.15493 3.61127 1.21561C3.62695 1.23322 3.67594 1.27237 3.6779 1.2939C3.6681 1.2802 3.65831 1.26846 3.64851 1.25475C3.65635 1.26454 3.66418 1.27629 3.67202 1.28607C3.68182 1.29977 3.69162 1.31348 3.70142 1.32913C3.7465 1.39764 3.78373 1.47007 3.82097 1.54249C3.85429 1.60904 3.81509 1.52096 3.81313 1.52096C3.82293 1.52879 3.83273 1.56793 3.83665 1.58163C3.85037 1.61882 3.86212 1.65602 3.87388 1.69321C3.88368 1.72648 3.89152 1.76171 3.89936 1.79499C3.90328 1.8126 3.9072 1.83022 3.90916 1.84784C3.91308 1.86545 3.91504 1.88307 3.917 1.90069C3.91504 1.88307 3.91308 1.86741 3.90916 1.84979C3.89936 1.92613 3.92092 2.01617 3.91896 2.09447C3.917 2.13166 3.91308 2.16689 3.91112 2.20408C3.90524 2.29412 3.92484 2.13557 3.91308 2.19429C3.90916 2.21582 3.90524 2.23735 3.90132 2.26084C3.88368 2.35088 3.85625 2.43896 3.82489 2.52509C3.81901 2.5427 3.78961 2.58185 3.82097 2.53879C3.85625 2.4879 3.80921 2.56032 3.80333 2.57402C3.78373 2.61317 3.76413 2.65036 3.74062 2.68755C3.7171 2.72865 3.68966 2.76584 3.66223 2.80499C3.63283 2.85001 3.67594 2.80695 3.6779 2.78737C3.6779 2.80303 3.63675 2.83631 3.62891 2.84609C3.57207 2.91069 3.51132 2.97136 3.44665 3.02617C3.43881 3.03204 3.41333 3.05749 3.40745 3.05945C3.45057 3.02813 3.45841 3.0203 3.43489 3.03792C3.42509 3.04575 3.41333 3.05357 3.40353 3.05945C3.36825 3.08293 3.33298 3.10642 3.29574 3.12795C3.25851 3.14949 3.22127 3.16906 3.18207 3.18863C3.18403 3.18863 3.13896 3.21212 3.13504 3.21016C3.18991 3.18863 3.19579 3.18472 3.1566 3.20038C3.14876 3.20429 3.14092 3.20625 3.13308 3.21016C3.05077 3.24148 2.9665 3.26497 2.88027 3.28259C2.85871 3.2865 2.83715 3.29042 2.81363 3.29433C2.78423 3.29825 2.79599 3.29825 2.85087 3.28846C2.83715 3.29042 2.82343 3.29237 2.80971 3.29237C2.76464 3.3002 2.71564 3.30216 2.66469 3.30216C2.45891 3.30412 2.26293 3.48028 2.27273 3.69363C2.28253 3.90503 2.44519 4.08706 2.66469 4.08511C3.53288 4.07728 4.28936 3.53117 4.59117 2.72278C4.87926 1.95158 4.62449 1.01008 3.98559 0.487467C3.64263 0.207564 3.24479 0.0431451 2.79991 0.00595516C2.39032 -0.0273201 1.95916 0.080335 1.60836 0.291731C0.863632 0.743882 0.49519 1.61882 0.663732 2.46832C0.849913 3.40394 1.72006 4.07532 2.66273 4.08315C2.86851 4.08511 3.06449 3.90111 3.05469 3.69168C3.04685 3.48028 2.88419 3.30412 2.66469 3.30216Z" fill="black"/>
</svg>
