<svg width="147" height="40" viewBox="0 0 147 40" fill="none" xmlns="http://www.w3.org/2000/svg">
<path d="M23.8369 14.8163C23.2744 14.7547 22.7054 14.8425 22.1889 15.0707L22.2363 14.6467C22.3268 13.8084 22.0766 12.9688 21.5403 12.3118C21.004 11.6548 20.2254 11.2338 19.3749 11.141C19.1901 11.1263 19.0045 11.1263 18.8198 11.141L23.9832 6.43131C24.3444 6.10813 24.6351 5.71603 24.8378 5.27881C25.0405 4.84159 25.1508 4.36835 25.1622 3.88783C25.1664 2.97266 24.8366 2.0865 24.2328 1.39098C23.9144 0.988746 23.508 0.662452 23.0439 0.436393C22.5798 0.210334 22.0698 0.0903351 21.5521 0.0853288H21.4962C20.9493 0.0967465 20.4102 0.215042 19.9102 0.433353C19.4101 0.651664 18.959 0.965643 18.5831 1.35707L10.1021 9.30968L10.1882 3.87935C10.2093 3.3741 10.1257 2.86992 9.94263 2.3975C9.75956 1.92509 9.4808 1.49432 9.12333 1.13144C8.76587 0.768563 8.33717 0.481161 7.86334 0.286739C7.38952 0.0923165 6.88048 -0.0050572 6.36724 0.0005459H6.29409C5.26776 -0.0163363 4.27466 0.358914 3.52303 1.04761C3.14531 1.39587 2.84395 1.8166 2.63749 2.28392C2.43103 2.75123 2.32384 3.25523 2.32253 3.76489L2.05575 21.387L2.2881 21.353C1.66246 21.6937 1.12934 22.1778 0.733872 22.7644C0.338401 23.3511 0.0922229 24.0229 0.016179 24.7232C-0.00539301 24.9856 -0.00539301 25.2492 0.016179 25.5116L0.28726 29.2378C0.459956 31.6796 1.49762 33.9842 3.21911 35.7491C4.9406 37.514 7.23658 38.6273 9.70627 38.8946L13.2519 39.2761C16.1672 39.5877 19.0889 38.7466 21.3753 36.9376C23.6617 35.1286 25.1258 32.4995 25.4462 29.6278L26.6984 18.3348C26.7456 17.9186 26.709 17.4972 26.5906 17.095C26.4723 16.6927 26.2746 16.3174 26.0088 15.9906C25.743 15.6637 25.4143 15.3918 25.0416 15.1903C24.6689 14.9888 24.2596 14.8617 23.8369 14.8163ZM19.2243 12.7179C19.6491 12.7659 20.0375 12.9772 20.3051 13.3059C20.5726 13.6345 20.6976 14.054 20.6528 14.4729L20.3 17.6311L19.7578 22.362C19.711 22.7813 19.4971 23.1652 19.163 23.4291C18.8289 23.6931 18.4021 23.8154 17.9764 23.7694C17.5508 23.7233 17.1611 23.5125 16.8932 23.1833C16.6253 22.8542 16.5011 22.4337 16.5479 22.0144L17.3396 14.8587L17.8258 13.2563C17.9972 13.0616 18.214 12.9109 18.4576 12.8171C18.7012 12.7233 18.9643 12.6893 19.2243 12.7179ZM4.03938 3.79033C4.03718 3.5072 4.09497 3.22674 4.20908 2.96688C4.32318 2.70702 4.49107 2.47348 4.70202 2.2812C5.13191 1.88699 5.70283 1.67664 6.28978 1.6962H6.33712C6.62491 1.6855 6.91177 1.73446 7.17913 1.83991C7.4465 1.94536 7.68841 2.10496 7.88919 2.30836C8.08997 2.51177 8.24516 2.75445 8.3447 3.02069C8.44425 3.28693 8.48593 3.5708 8.46704 3.85392L8.32075 13.3326L19.8051 2.51859C20.0253 2.28304 20.2909 2.09311 20.5864 1.9599C20.8819 1.8267 21.2015 1.7529 21.5263 1.74283H21.5607C21.8265 1.74742 22.0875 1.81257 22.3234 1.93319C22.5593 2.0538 22.7637 2.2266 22.9204 2.43805C23.268 2.82573 23.4621 3.32393 23.4669 3.8412C23.4553 4.09805 23.3909 4.34992 23.2778 4.58161C23.1646 4.8133 23.005 5.02 22.8086 5.18924L14.9902 12.3152L15.8981 13.5361C15.8616 13.6755 15.8343 13.8171 15.8164 13.96L15.2054 19.4709C15.1439 19.4645 15.0818 19.4645 15.0203 19.4709L14.7277 19.5048L11.6512 15.4013L8.24329 18.5467L8.21748 20.3314L3.91459 20.8571H3.78981L4.03938 3.79033ZM12.7699 19.7591L9.94293 20.1025V19.2547L11.3973 17.9193L12.7699 19.7591ZM23.8413 29.4413C23.5641 31.8922 22.313 34.1351 20.3615 35.6795C18.4101 37.2239 15.9172 37.9439 13.4283 37.6822L9.88269 37.3049C7.78822 37.0773 5.84097 36.1337 4.37954 34.6381C2.91811 33.1426 2.03495 31.1897 1.88363 29.1191L1.61255 25.4014C1.59749 25.2322 1.59749 25.062 1.61255 24.8927C1.68089 24.2626 1.96402 23.6739 2.41572 23.2227C2.86742 22.7716 3.46102 22.4846 4.09962 22.4086L13.8586 21.2259L14.4093 21.938C14.3012 22.5816 14.0033 23.1796 13.5526 23.6576C13.1019 24.1355 12.5185 24.4722 11.8749 24.6257L8.28202 25.4947C8.00056 25.5618 7.73674 25.687 7.50799 25.8619C7.27922 26.0368 7.09072 26.2576 6.95491 26.5095C6.8191 26.7615 6.73906 27.039 6.72009 27.3237C6.70112 27.6084 6.74365 27.8938 6.84486 28.1611L7.60647 30.2213C7.68807 30.4098 7.84021 30.56 8.03131 30.6409C8.22241 30.7217 8.43778 30.727 8.63269 30.6555C8.82761 30.5841 8.9871 30.4414 9.07804 30.2571C9.16899 30.0728 9.1844 29.8612 9.12108 29.666L8.35517 27.6227C8.33023 27.5681 8.31734 27.5088 8.31734 27.4489C8.31734 27.389 8.33023 27.3298 8.35517 27.2751C8.38344 27.2203 8.42348 27.1721 8.47252 27.1341C8.52156 27.096 8.57843 27.0689 8.63916 27.0547L12.2321 26.2069C12.8859 26.0524 13.501 25.7687 14.0402 25.373C14.5794 24.9773 15.0314 24.4779 15.3689 23.905C15.5965 24.2699 15.8966 24.5857 16.2511 24.8334C16.6057 25.0812 17.0074 25.2559 17.4321 25.347C17.8569 25.438 18.296 25.4436 18.723 25.3633C19.15 25.2831 19.5561 25.1187 19.917 24.88C20.1501 25.379 20.5105 25.8099 20.9629 26.1308C21.4154 26.4518 21.9445 26.6518 22.4988 26.7113C23.0613 26.7729 23.6303 26.6851 24.1468 26.457L23.8413 29.4413ZM25.0934 18.1483L24.4824 23.6591C24.4362 24.0785 24.2227 24.4626 23.8891 24.7269C23.5554 24.9913 23.1288 25.1142 22.7031 25.0686C22.2775 25.0231 21.8876 24.8129 21.6193 24.4841C21.351 24.1554 21.2262 23.7351 21.2724 23.3158L21.3585 22.523L21.7113 19.3946L21.8834 17.8134C21.9297 17.394 22.1431 17.0099 22.4767 16.7456C22.642 16.6147 22.8317 16.5172 23.0352 16.4585C23.2387 16.3999 23.4519 16.3813 23.6627 16.4039C23.8735 16.4264 24.0776 16.4896 24.2636 16.5899C24.4496 16.6902 24.6137 16.8256 24.7465 16.9884C24.8794 17.1512 24.9784 17.3381 25.0379 17.5386C25.0974 17.739 25.1163 17.9491 25.0934 18.1567V18.1483Z" fill="url(#paint0_linear)"/>
<path d="M67.4467 7.70299C67.6755 7.8704 67.8621 8.08752 67.9919 8.33748C68.1218 8.58744 68.1914 8.86353 68.1954 9.1443C68.2226 9.45147 68.1847 9.76087 68.0839 10.0528C67.9832 10.3447 67.8218 10.6128 67.6102 10.8399C67.4286 11.0205 67.2119 11.163 66.9731 11.2592C66.7343 11.3553 66.4783 11.4031 66.2204 11.3995C65.7944 11.387 65.3737 11.3024 64.9768 11.1494L64.4863 11.0053C64.2178 10.929 63.9395 10.8919 63.6601 10.8951C63.0048 10.8931 62.3643 11.0867 61.8228 11.4504C61.1894 11.8919 60.6909 12.4959 60.3813 13.1969C59.9833 14.0791 59.7921 15.0383 59.822 16.0032V24.5451C59.8302 24.8337 59.7792 25.1211 59.672 25.3899C59.5648 25.6587 59.4036 25.9034 59.198 26.1093C58.7776 26.514 58.2131 26.7406 57.6253 26.7406C57.0375 26.7406 56.4731 26.514 56.0526 26.1093C55.8485 25.9026 55.6885 25.6577 55.5821 25.389C55.4756 25.1203 55.4249 24.8333 55.433 24.5451V9.64451C55.4253 9.35563 55.4762 9.06813 55.5826 8.79883C55.689 8.52952 55.8488 8.2838 56.0526 8.07604C56.4741 7.67333 57.0382 7.44812 57.6253 7.44812C58.2125 7.44812 58.7766 7.67333 59.198 8.07604C59.4033 8.28304 59.5643 8.52852 59.6715 8.79794C59.7786 9.06737 59.8298 9.35524 59.822 9.64451V10.1151C60.3773 9.13567 61.2265 8.34944 62.2531 7.86408C63.2929 7.35497 64.4396 7.09361 65.6007 7.10104C66.2693 7.07811 66.9241 7.29163 67.4467 7.70299Z" fill="#3D4348"/>
<path d="M123.423 26.0967C123.002 26.5014 122.438 26.728 121.85 26.728C121.262 26.728 120.698 26.5014 120.277 26.0967C120.073 25.89 119.913 25.6451 119.807 25.3764C119.7 25.1077 119.65 24.8208 119.658 24.5325V9.64464C119.65 9.35576 119.701 9.06826 119.807 8.79895C119.914 8.52965 120.074 8.28393 120.277 8.07617C120.699 7.67346 121.263 7.44824 121.85 7.44824C122.437 7.44824 123.001 7.67346 123.423 8.07617C123.628 8.28316 123.789 8.52865 123.896 8.79807C124.004 9.06749 124.055 9.35537 124.047 9.64464V24.5282C124.056 24.8176 124.005 25.1058 123.898 25.3753C123.79 25.6449 123.629 25.8903 123.423 26.0967Z" fill="#3D4348"/>
<path d="M145.299 9.27144C146.248 10.724 146.724 12.7348 146.727 15.3037V24.5323C146.736 24.821 146.685 25.1084 146.577 25.3771C146.47 25.6459 146.309 25.8906 146.103 26.0965C145.683 26.5012 145.119 26.7278 144.531 26.7278C143.943 26.7278 143.378 26.5012 142.958 26.0965C142.754 25.8898 142.594 25.6449 142.487 25.3762C142.381 25.1076 142.33 24.8206 142.338 24.5323V15.3037C142.396 14.2013 142.095 13.1096 141.478 12.188C140.918 11.4334 139.956 11.0561 138.591 11.0561C137.981 11.0215 137.371 11.1105 136.799 11.3176C136.226 11.5247 135.702 11.8455 135.26 12.26C134.861 12.6611 134.549 13.1375 134.342 13.6606C134.135 14.1836 134.037 14.7426 134.055 15.3037V24.5323C134.064 24.821 134.013 25.1084 133.905 25.3771C133.798 25.6459 133.637 25.8906 133.431 26.0965C133.011 26.5012 132.447 26.7278 131.859 26.7278C131.271 26.7278 130.706 26.5012 130.286 26.0965C130.082 25.8898 129.922 25.6449 129.815 25.3762C129.709 25.1076 129.658 24.8206 129.666 24.5323V9.64448C129.659 9.3556 129.71 9.0681 129.816 8.79879C129.922 8.52949 130.082 8.28377 130.286 8.07601C130.708 7.6733 131.272 7.44808 131.859 7.44808C132.446 7.44808 133.01 7.6733 133.431 8.07601C133.639 8.28195 133.802 8.52696 133.912 8.79643C134.021 9.0659 134.074 9.35432 134.068 9.64448V10.2592C134.773 9.355 135.65 8.59476 136.65 8.02089C137.704 7.40561 138.91 7.08741 140.135 7.101C142.625 7.101 144.346 7.82448 145.299 9.27144Z" fill="#3D4348"/>
<path d="M48.9142 7.70295C48.708 7.50469 48.4636 7.34925 48.1952 7.24584C47.9269 7.14244 47.6403 7.09318 47.3523 7.10099C47.0596 7.09227 46.7683 7.14396 46.497 7.25274C46.2258 7.36151 45.9807 7.52497 45.7774 7.73262C45.5373 7.98009 45.3616 8.28117 45.2654 8.61012V16.0244C45.312 16.3829 45.3364 16.7439 45.3385 17.1053C45.396 18.6739 44.8627 20.2079 43.8411 21.4123C43.366 21.9629 42.7712 22.4011 42.1008 22.6947C41.4305 22.9882 40.7018 23.1294 39.9685 23.1079C39.2346 23.1341 38.5044 22.995 37.8333 22.7011C37.1622 22.4073 36.568 21.9665 36.0959 21.4123C35.0834 20.2039 34.5567 18.6712 34.6157 17.1053C34.5607 15.5333 35.0936 13.9961 36.1131 12.7857C36.5778 12.2283 37.1655 11.7828 37.8314 11.4831C38.4972 11.1834 39.2238 11.0373 39.9556 11.0561C40.0933 11.0561 40.2224 11.0561 40.3558 11.0561V7.16458C39.9921 7.11537 39.6256 7.08988 39.2585 7.08827C37.6715 7.07298 36.1146 7.51502 34.7792 8.36001C33.4014 9.23959 32.2943 10.474 31.5779 11.9294C30.7795 13.5397 30.3799 15.3135 30.4118 17.1053C30.38 18.8928 30.7874 20.6613 31.5994 22.2601C32.3328 23.7091 33.451 24.9353 34.8352 25.8083C36.2025 26.6599 37.7916 27.1017 39.4091 27.08C40.4922 27.0653 41.5608 26.832 42.5488 26.3945C43.5368 25.957 44.4232 25.3247 45.1535 24.5365C45.1577 25.1147 45.3854 25.6695 45.7903 26.0881C46.2105 26.4867 46.7711 26.7094 47.3544 26.7094C47.9378 26.7094 48.4984 26.4867 48.9185 26.0881C49.1232 25.8816 49.2839 25.6368 49.3911 25.3681C49.4982 25.0995 49.5497 24.8124 49.5424 24.5238V9.26295C49.5493 8.9747 49.4972 8.68804 49.3893 8.42004C49.2814 8.15204 49.1198 7.90816 48.9142 7.70295Z" fill="#3D4348"/>
<path d="M89.6668 7.70299C89.4591 7.50317 89.2125 7.34682 88.9418 7.24337C88.6712 7.13992 88.3821 7.0915 88.0919 7.10104C87.8 7.09291 87.5095 7.14489 87.239 7.25365C86.9686 7.36241 86.7242 7.52556 86.5214 7.73267C86.3157 7.93938 86.1545 8.18481 86.0473 8.45431C85.9401 8.7238 85.8891 9.01182 85.8975 9.30115V9.69962L85.8544 9.65299V15.2529C86.0093 15.8585 86.0859 16.4809 86.0825 17.1054C86.1367 18.683 85.5816 20.2221 84.5292 21.4123C84.0285 21.9671 83.4101 22.4066 82.7178 22.6996C82.0255 22.9926 81.2763 23.1321 80.5232 23.108C79.7724 23.1337 79.0252 22.9949 78.3354 22.7017C77.6457 22.4084 77.0305 21.9681 76.5344 21.4123C75.4904 20.2183 74.9419 18.6803 74.9983 17.1054C74.9441 15.5269 75.4922 13.9858 76.5344 12.7857C77.0255 12.2217 77.6388 11.7734 78.3292 11.4741C79.0195 11.1748 79.7693 11.0319 80.5232 11.0561C80.6695 11.0561 80.8115 11.0561 80.9535 11.0561V7.15615C80.5787 7.10198 80.2006 7.07365 79.8218 7.07136C78.2006 7.0528 76.6083 7.49428 75.2349 8.3431C73.8379 9.21664 72.7112 10.4513 71.9777 11.9124C71.1675 13.5164 70.7602 15.2886 70.7901 17.0799C70.7575 18.8694 71.1712 20.6395 71.9949 22.2347C72.7492 23.6937 73.8951 24.9209 75.3081 25.7829C76.7073 26.6342 78.3237 27.0754 79.9681 27.0546C81.1917 27.0663 82.3974 26.7638 83.4663 26.1771C84.4183 25.6882 85.2485 24.9976 85.8975 24.1551V25.8889C85.9296 26.4578 85.8257 27.0261 85.594 27.5482C85.3623 28.0702 85.0093 28.5314 84.5636 28.8944C83.6743 29.6009 82.3275 29.9556 80.5232 29.9584C79.4885 29.9305 78.4677 29.7165 77.5112 29.3268C76.401 28.9029 75.79 28.6867 75.6996 28.6612C75.4746 28.5891 75.2392 28.5533 75.0026 28.5553C74.5812 28.5603 74.1748 28.7102 73.8537 28.9792C73.475 29.2896 73.2104 29.7142 73.1007 30.1873C73.0337 30.3726 72.9974 30.5672 72.9931 30.7639C72.9931 31.6541 73.5898 32.3507 74.7831 32.8537C75.664 33.1884 76.5785 33.43 77.5112 33.5744C78.5023 33.7827 79.5103 33.9033 80.5232 33.9347C83.3487 33.9347 85.6838 33.2282 87.5283 31.8152C89.3728 30.4021 90.2922 28.2402 90.2864 25.3293V9.28843C90.2982 8.99652 90.2493 8.70533 90.1427 8.4327C90.0362 8.16007 89.8742 7.91176 89.6668 7.70299Z" fill="#3D4348"/>
<path d="M113.402 7.7032C113.194 7.5039 112.948 7.34786 112.679 7.24442C112.409 7.14099 112.12 7.09229 111.831 7.10125C111.538 7.09305 111.247 7.14498 110.976 7.25372C110.705 7.36247 110.46 7.52565 110.256 7.73287C109.918 8.0783 109.708 8.52668 109.662 9.00461V15.5541C109.766 16.065 109.817 16.5847 109.817 17.1056C109.875 18.6741 109.341 20.2082 108.32 21.4125C107.845 21.9631 107.25 22.4014 106.58 22.6949C105.909 22.9884 105.18 23.1297 104.447 23.1082C103.713 23.1337 102.983 22.9943 102.312 22.7005C101.641 22.4067 101.047 21.9663 100.575 21.4125C99.5642 20.203 99.0378 18.6711 99.0944 17.1056C99.0394 15.5336 99.5723 13.9964 100.592 12.7859C101.057 12.2288 101.644 11.7835 102.31 11.4838C102.976 11.1841 103.703 11.0379 104.434 11.0564C104.546 11.0564 104.649 11.0564 104.757 11.0564V7.15211C104.419 7.11153 104.078 7.0903 103.737 7.08853C102.149 7.07899 100.593 7.52532 99.2579 8.37298C97.8815 9.25421 96.7748 10.4882 96.0566 11.9423C95.258 13.5497 94.857 15.3205 94.8862 17.1098C94.8531 18.8979 95.2622 20.6671 96.0781 22.2646C96.8115 23.7136 97.9297 24.9397 99.3139 25.8128C100.679 26.6649 102.267 27.1068 103.884 27.0845C105.018 27.0875 106.138 26.8352 107.158 26.3469C108.097 25.925 108.937 25.3175 109.628 24.5622C109.634 25.1409 109.863 25.6956 110.269 26.1137C110.688 26.5121 111.248 26.7347 111.831 26.7347C112.414 26.7347 112.973 26.5121 113.393 26.1137C113.598 25.9078 113.76 25.6631 113.867 25.3943C113.974 25.1255 114.025 24.8382 114.017 24.5495V9.28864C114.031 8.99686 113.983 8.70542 113.877 8.43259C113.771 8.15976 113.609 7.91144 113.402 7.7032Z" fill="#3D4348"/>
<defs>
<linearGradient id="paint0_linear" x1="1.46951" y1="6.55662" x2="23.7333" y2="7.75672" gradientUnits="userSpaceOnUse">
<stop stop-color="#2C65F6" stop-opacity="0.69"/>
<stop offset="0.322677" stop-color="#699EF8" stop-opacity="0.87"/>
<stop offset="0.655809" stop-color="#A291F3"/>
<stop offset="1" stop-color="#ED80EB" stop-opacity="0.81"/>
</linearGradient>
</defs>
</svg>
