<?xml version="1.0" encoding="UTF-8"?>
<svg xmlns="http://www.w3.org/2000/svg" xmlns:xlink="http://www.w3.org/1999/xlink" width="147px" height="40px" viewBox="0 0 162 40" version="1.1">
<defs>
<linearGradient id="linear0" gradientUnits="userSpaceOnUse" x1="14472.72" y1="988.07" x2="15174.98" y2="542.02" gradientTransform="matrix(0.00941328,0,0,0.00945202,0.0000928522,0)">
<stop offset="0" style="stop-color:rgb(12.54902%,37.647059%,100%);stop-opacity:1;"/>
<stop offset="0.309804" style="stop-color:rgb(36.078431%,61.568627%,100%);stop-opacity:1;"/>
<stop offset="0.658824" style="stop-color:rgb(65.490196%,55.294118%,98.039216%);stop-opacity:1;"/>
<stop offset="1" style="stop-color:rgb(99.607843%,45.490196%,94.509804%);stop-opacity:1;"/>
</linearGradient>
<linearGradient id="linear1" gradientUnits="userSpaceOnUse" x1="1638.59" y1="3848.06" x2="1999.72" y2="1691.03" gradientTransform="matrix(0.00941328,0,0,0.00945202,0.0000928522,0)">
<stop offset="0" style="stop-color:rgb(12.54902%,37.647059%,100%);stop-opacity:1;"/>
<stop offset="0.309804" style="stop-color:rgb(36.078431%,61.568627%,100%);stop-opacity:1;"/>
<stop offset="0.658824" style="stop-color:rgb(65.490196%,55.294118%,98.039216%);stop-opacity:1;"/>
<stop offset="1" style="stop-color:rgb(99.607843%,45.490196%,94.509804%);stop-opacity:1;"/>
</linearGradient>
</defs>
<g id="surface1">
<path style=" stroke:none;fill-rule:evenodd;fill:url(#linear0);" d="M 139.382812 10.054688 C 138.472656 10.054688 137.730469 9.789062 137.160156 9.257812 C 136.589844 8.726562 136.304688 8.066406 136.304688 7.28125 C 136.304688 6.496094 136.589844 5.839844 137.160156 5.308594 C 137.730469 4.777344 138.472656 4.511719 139.382812 4.511719 C 140.289062 4.511719 141.03125 4.765625 141.601562 5.273438 C 142.171875 5.785156 142.457031 6.421875 142.457031 7.1875 C 142.457031 8.015625 142.171875 8.699219 141.601562 9.242188 C 141.03125 9.78125 140.289062 10.054688 139.382812 10.054688 Z M 139.382812 10.054688 "/>
<path style=" stroke:none;fill-rule:nonzero;fill:rgb(14.117647%,21.176471%,37.647059%);fill-opacity:1;" d="M 154.84375 10.859375 C 156.957031 10.859375 158.664062 11.496094 159.964844 12.769531 C 161.265625 14.042969 161.917969 15.933594 161.917969 18.441406 L 161.917969 25.773438 C 161.917969 27.140625 160.808594 28.253906 159.449219 28.253906 L 159.4375 28.253906 C 158.078125 28.253906 156.96875 27.140625 156.96875 25.773438 L 156.96875 19.203125 C 156.96875 17.84375 156.671875 16.832031 156.078125 16.164062 C 155.488281 15.492188 154.632812 15.160156 153.511719 15.160156 C 152.261719 15.160156 151.269531 15.546875 150.527344 16.320312 C 149.789062 17.097656 149.417969 18.25 149.417969 19.777344 L 149.417969 25.773438 C 149.417969 27.140625 148.308594 28.253906 146.949219 28.253906 L 146.9375 28.253906 C 145.578125 28.253906 144.46875 27.140625 144.46875 25.773438 L 144.46875 12.828125 C 144.46875 11.882812 145.234375 11.113281 146.175781 11.113281 L 147.488281 11.113281 C 148.429688 11.113281 149.195312 11.882812 149.195312 12.828125 L 149.195312 13.121094 C 149.851562 12.398438 150.664062 11.839844 151.636719 11.449219 C 152.609375 11.054688 153.679688 10.859375 154.84375 10.859375 Z M 154.84375 10.859375 "/>
<path style=" stroke:none;fill-rule:nonzero;fill:rgb(14.117647%,21.176471%,37.647059%);fill-opacity:1;" d="M 139.375 11.113281 L 139.386719 11.113281 C 140.746094 11.113281 141.855469 12.226562 141.855469 13.589844 L 141.855469 25.773438 C 141.855469 27.140625 140.746094 28.253906 139.386719 28.253906 L 139.375 28.253906 C 138.015625 28.253906 136.90625 27.140625 136.90625 25.773438 L 136.90625 13.589844 C 136.90625 12.226562 138.015625 11.113281 139.375 11.113281 Z M 139.375 11.113281 "/>
<path style=" stroke:none;fill-rule:nonzero;fill:rgb(14.117647%,21.176471%,37.647059%);fill-opacity:1;" d="M 125.191406 24.429688 C 126.441406 24.429688 127.476562 24 128.300781 23.140625 C 129.128906 22.277344 129.539062 21.125 129.539062 19.683594 C 129.539062 18.238281 129.128906 17.085938 128.300781 16.226562 C 127.476562 15.367188 126.441406 14.9375 125.191406 14.9375 C 123.925781 14.9375 122.878906 15.367188 122.050781 16.226562 C 121.226562 17.085938 120.816406 18.238281 120.816406 19.683594 C 120.816406 21.125 121.226562 22.277344 122.050781 23.140625 C 122.878906 24 123.925781 24.429688 125.191406 24.429688 Z M 134.394531 12.828125 L 134.394531 26.539062 C 134.394531 27.484375 133.628906 28.253906 132.6875 28.253906 L 131.375 28.253906 C 130.433594 28.253906 129.667969 27.484375 129.667969 26.539062 L 129.667969 26.277344 C 128.441406 27.765625 126.664062 28.507812 124.335938 28.507812 C 122.730469 28.507812 121.273438 28.144531 119.972656 27.425781 C 118.671875 26.703125 117.652344 25.671875 116.914062 24.332031 C 116.171875 22.996094 115.800781 21.445312 115.800781 19.683594 C 115.800781 17.917969 116.171875 16.371094 116.914062 15.03125 C 117.652344 13.695312 118.671875 12.664062 119.972656 11.941406 C 121.273438 11.21875 122.730469 10.859375 124.335938 10.859375 C 126.515625 10.859375 128.21875 11.546875 129.445312 12.929688 L 129.445312 12.828125 C 129.445312 11.882812 130.210938 11.113281 131.152344 11.113281 L 132.6875 11.113281 C 133.628906 11.113281 134.394531 11.882812 134.394531 12.828125 Z M 134.394531 12.828125 "/>
<path style=" stroke:none;fill-rule:nonzero;fill:rgb(14.117647%,21.176471%,37.647059%);fill-opacity:1;" d="M 104.121094 23.347656 C 105.429688 23.347656 106.503906 22.957031 107.339844 22.183594 C 108.175781 21.410156 108.59375 20.394531 108.59375 19.140625 C 108.59375 17.886719 108.175781 16.875 107.339844 16.097656 C 106.503906 15.324219 105.429688 14.9375 104.121094 14.9375 C 102.808594 14.9375 101.730469 15.324219 100.882812 16.097656 C 100.039062 16.875 99.613281 17.886719 99.613281 19.140625 C 99.613281 20.394531 100.039062 21.410156 100.882812 22.183594 C 101.730469 22.957031 102.808594 23.347656 104.121094 23.347656 Z M 113.480469 13.285156 L 113.480469 25.386719 C 113.480469 28.527344 112.664062 30.863281 111.035156 32.394531 C 109.40625 33.921875 107.027344 34.6875 103.898438 34.6875 C 102.246094 34.6875 100.683594 34.484375 99.203125 34.082031 C 98.554688 33.90625 97.953125 33.695312 97.402344 33.449219 C 96.871094 33.210938 96.5 32.800781 96.3125 32.246094 C 96.128906 31.6875 96.179688 31.140625 96.460938 30.625 L 96.476562 30.597656 C 96.988281 29.671875 98.113281 29.300781 99.074219 29.738281 C 99.429688 29.902344 99.808594 30.050781 100.21875 30.179688 C 101.316406 30.53125 102.417969 30.707031 103.515625 30.707031 C 105.230469 30.707031 106.492188 30.316406 107.308594 29.542969 C 108.121094 28.765625 108.53125 27.59375 108.53125 26.023438 L 108.53125 25.289062 C 107.238281 26.710938 105.441406 27.425781 103.136719 27.425781 C 101.570312 27.425781 100.136719 27.078125 98.835938 26.386719 C 97.535156 25.699219 96.503906 24.726562 95.742188 23.472656 C 94.980469 22.21875 94.601562 20.777344 94.601562 19.140625 C 94.601562 17.503906 94.980469 16.0625 95.742188 14.808594 C 96.503906 13.554688 97.535156 12.582031 98.835938 11.894531 C 100.136719 11.203125 101.570312 10.859375 103.136719 10.859375 C 105.609375 10.859375 107.492188 11.675781 108.785156 13.3125 L 108.785156 13.285156 C 108.785156 12.089844 109.753906 11.113281 110.945312 11.113281 L 111.316406 11.113281 C 112.507812 11.113281 113.480469 12.089844 113.480469 13.285156 Z M 113.480469 13.285156 "/>
<path style=" stroke:none;fill-rule:nonzero;fill:rgb(14.117647%,21.176471%,37.647059%);fill-opacity:1;" d="M 88.363281 13.375 C 88.957031 12.546875 89.753906 11.921875 90.761719 11.496094 C 91.058594 11.371094 91.371094 11.261719 91.695312 11.171875 C 92.320312 11.003906 92.929688 11.121094 93.445312 11.519531 C 93.957031 11.914062 94.234375 12.472656 94.234375 13.121094 L 94.234375 13.414062 C 94.234375 14.460938 93.445312 15.328125 92.40625 15.425781 C 91.457031 15.511719 90.5625 15.8125 89.792969 16.578125 C 88.988281 17.371094 88.585938 18.566406 88.585938 20.160156 L 88.585938 25.773438 C 88.585938 27.140625 87.476562 28.253906 86.117188 28.253906 L 86.105469 28.253906 C 84.746094 28.253906 83.636719 27.140625 83.636719 25.773438 L 83.636719 13.285156 C 83.636719 12.089844 84.609375 11.113281 85.800781 11.113281 L 86.199219 11.113281 C 87.394531 11.113281 88.363281 12.089844 88.363281 13.285156 Z M 88.363281 13.375 "/>
<path style=" stroke:none;fill-rule:nonzero;fill:rgb(14.117647%,21.176471%,37.647059%);fill-opacity:1;" d="M 71.828125 24.429688 C 73.078125 24.429688 74.113281 24 74.9375 23.140625 C 75.765625 22.277344 76.175781 21.125 76.175781 19.683594 C 76.175781 18.238281 75.765625 17.085938 74.9375 16.226562 C 74.113281 15.367188 73.078125 14.9375 71.828125 14.9375 C 70.5625 14.9375 69.515625 15.367188 68.6875 16.226562 C 67.863281 17.085938 67.453125 18.238281 67.453125 19.683594 C 67.453125 21.125 67.863281 22.277344 68.6875 23.140625 C 69.515625 24 70.5625 24.429688 71.828125 24.429688 Z M 81.03125 12.828125 L 81.03125 26.386719 C 81.03125 27.414062 80.195312 28.253906 79.171875 28.253906 L 78.160156 28.253906 C 77.136719 28.253906 76.304688 27.414062 76.304688 26.386719 L 76.304688 26.277344 C 75.078125 27.765625 73.300781 28.507812 70.972656 28.507812 C 69.367188 28.507812 67.910156 28.144531 66.609375 27.425781 C 65.308594 26.703125 64.289062 25.671875 63.550781 24.332031 C 62.808594 22.996094 62.4375 21.445312 62.4375 19.683594 C 62.4375 17.917969 62.808594 16.371094 63.550781 15.03125 C 64.289062 13.695312 65.308594 12.664062 66.609375 11.941406 C 67.910156 11.21875 69.367188 10.859375 70.972656 10.859375 C 73.152344 10.859375 74.855469 11.546875 76.082031 12.929688 L 76.082031 12.828125 C 76.082031 11.882812 76.847656 11.113281 77.789062 11.113281 L 79.324219 11.113281 C 80.265625 11.113281 81.03125 11.882812 81.03125 12.828125 Z M 81.03125 12.828125 "/>
<path style=" stroke:none;fill-rule:nonzero;fill:rgb(14.117647%,21.176471%,37.647059%);fill-opacity:1;" d="M 52.761719 21.53125 L 50.382812 23.886719 L 50.382812 25.773438 C 50.382812 27.140625 49.273438 28.253906 47.914062 28.253906 L 47.902344 28.253906 C 46.542969 28.253906 45.433594 27.140625 45.433594 25.773438 L 45.433594 13.589844 C 45.433594 12.226562 46.542969 11.113281 47.902344 11.113281 L 47.914062 11.113281 C 49.273438 11.113281 50.382812 12.226562 50.382812 13.589844 L 50.382812 17.996094 L 52.375 16.097656 L 56.945312 11.75 C 57.472656 11.25 58.132812 11.035156 58.847656 11.132812 L 58.96875 11.148438 C 59.867188 11.269531 60.574219 11.859375 60.855469 12.726562 C 61.140625 13.59375 60.921875 14.488281 60.269531 15.121094 L 56.632812 18.660156 L 58.421875 20.941406 L 59.738281 22.621094 L 61.203125 24.488281 C 61.761719 25.207031 61.863281 26.121094 61.464844 26.941406 C 61.066406 27.761719 60.289062 28.253906 59.382812 28.253906 L 59.261719 28.253906 C 58.539062 28.253906 57.914062 27.953125 57.460938 27.386719 Z M 52.761719 21.53125 "/>
<path style=" stroke:none;fill-rule:evenodd;fill:url(#linear1);" d="M 3.109375 30.453125 C 1.125 27.253906 0.132812 23.613281 0.132812 19.972656 C 0.132812 15.277344 1.785156 10.578125 5.085938 6.832031 L 8.535156 10.296875 C 6.175781 13.078125 4.996094 16.527344 4.996094 19.972656 C 4.996094 23.800781 6.449219 27.628906 9.359375 30.550781 C 12.265625 33.46875 16.078125 34.929688 19.890625 34.929688 C 23.324219 34.929688 26.757812 33.746094 29.53125 31.378906 L 32.976562 34.839844 C 29.246094 38.15625 24.570312 39.8125 19.890625 39.8125 C 16.265625 39.8125 12.636719 38.816406 9.453125 36.824219 C 9.59375 35.15625 9.027344 33.4375 7.753906 32.160156 C 6.484375 30.882812 4.773438 30.3125 3.109375 30.453125 Z M 1.054688 38.886719 C -0.351562 37.472656 -0.351562 35.183594 1.054688 33.769531 C 2.460938 32.359375 4.742188 32.359375 6.148438 33.769531 C 7.558594 35.183594 7.558594 37.472656 6.148438 38.886719 C 4.742188 40.300781 2.460938 40.300781 1.054688 38.886719 Z M 19.890625 14.289062 C 23.019531 14.289062 25.550781 16.832031 25.550781 19.972656 C 25.550781 23.113281 23.019531 25.65625 19.890625 25.65625 C 16.765625 25.65625 14.230469 23.113281 14.230469 19.972656 C 14.230469 16.832031 16.765625 14.289062 19.890625 14.289062 Z M 38.726562 1.058594 C 37.320312 -0.351562 35.039062 -0.351562 33.632812 1.058594 C 32.226562 2.472656 32.226562 4.761719 33.632812 6.175781 C 35.039062 7.589844 37.320312 7.589844 38.726562 6.175781 C 40.132812 4.761719 40.132812 2.472656 38.726562 1.058594 Z M 30.328125 3.121094 C 27.144531 1.128906 23.519531 0.132812 19.890625 0.132812 C 15.214844 0.132812 10.535156 1.789062 6.804688 5.105469 L 10.253906 8.566406 C 13.027344 6.199219 16.460938 5.015625 19.890625 5.015625 C 23.703125 5.015625 27.515625 6.476562 30.425781 9.394531 C 33.332031 12.316406 34.789062 16.144531 34.789062 19.972656 C 34.789062 23.417969 33.609375 26.867188 31.25 29.652344 L 34.695312 33.113281 C 38 29.367188 39.648438 24.671875 39.648438 19.972656 C 39.648438 16.332031 38.65625 12.691406 36.675781 9.492188 C 35.011719 9.632812 33.300781 9.066406 32.027344 7.785156 C 30.753906 6.507812 30.1875 4.789062 30.328125 3.121094 Z M 30.328125 3.121094 "/>
</g>
</svg>
