<svg width="147" height="37" viewBox="0 0 147 37" fill="none" xmlns="http://www.w3.org/2000/svg">
<g clip-path="url(#clip0_171_212)">
<path fill-rule="evenodd" clip-rule="evenodd" d="M126.54 9.09019C125.714 9.09019 125.042 8.85004 124.524 8.3701C124.005 7.88998 123.746 7.29467 123.746 6.58423C123.746 5.87372 124.005 5.2784 124.524 4.79837C125.042 4.31834 125.714 4.07837 126.54 4.07837C127.366 4.07837 128.038 4.3086 128.556 4.76949C129.075 5.23037 129.334 5.80646 129.334 6.49775C129.334 7.24664 129.075 7.86588 128.556 8.35557C128.038 8.84534 127.366 9.09019 126.54 9.09019Z" fill="url(#paint0_linear_171_212)"/>
<path d="M140.577 9.81738C142.497 9.81738 144.047 10.3935 145.228 11.5456C146.409 12.6976 147 14.4068 147 16.6726V23.3035C147 24.5377 145.993 25.5442 144.759 25.5442H144.747C143.513 25.5442 142.506 24.5377 142.506 23.3035V17.3639C142.506 16.135 142.238 15.2181 141.7 14.6132C141.162 14.0084 140.385 13.7061 139.367 13.7061C138.234 13.7061 137.331 14.0565 136.659 14.7573C135.987 15.4583 135.651 16.4999 135.651 17.8826V23.3037C135.651 24.5378 134.645 25.5444 133.41 25.5444H133.398C132.164 25.5444 131.158 24.5378 131.158 23.3037V11.5972C131.158 10.7439 131.854 10.048 132.707 10.048H133.9C134.754 10.048 135.449 10.7439 135.449 11.5972V11.8626C136.045 11.2098 136.784 10.7057 137.667 10.3504C138.551 9.99514 139.521 9.81755 140.577 9.81755V9.81738Z" fill="#243660"/>
<path d="M126.534 10.0477H126.546C127.78 10.0477 128.787 11.0543 128.787 12.2885V23.3034C128.787 24.5375 127.78 25.5441 126.546 25.5441H126.534C125.3 25.5441 124.293 24.5375 124.293 23.3034V12.2885C124.293 11.0543 125.3 10.0477 126.534 10.0477Z" fill="#243660"/>
<path d="M113.659 22.0878C114.792 22.0878 115.733 21.699 116.482 20.9212C117.231 20.1436 117.605 19.1017 117.605 17.796C117.605 16.4902 117.231 15.4485 116.482 14.6708C115.733 13.893 114.792 13.5043 113.659 13.5043C112.507 13.5043 111.556 13.893 110.808 14.6708C110.059 15.4485 109.684 16.4902 109.684 17.796C109.684 19.1017 110.059 20.1436 110.808 20.9212C111.556 21.699 112.507 22.0878 113.659 22.0878V22.0878ZM122.012 11.597V23.9951C122.012 24.8484 121.316 25.5442 120.463 25.5442H119.27C118.416 25.5442 117.72 24.8484 117.72 23.9951V23.7585C116.607 25.1027 114.994 25.7747 112.881 25.7747C111.422 25.7747 110.102 25.4483 108.921 24.7954C107.74 24.1426 106.813 23.2111 106.141 22.0014C105.469 20.7916 105.133 19.3899 105.133 17.7961C105.133 16.2022 105.469 14.8005 106.141 13.5908C106.813 12.381 107.74 11.4496 108.921 10.7968C110.102 10.144 111.422 9.8175 112.881 9.8175C114.859 9.8175 116.405 10.4416 117.519 11.6899V11.5971C117.519 10.7438 118.215 10.0479 119.068 10.0479H120.463C121.316 10.0479 122.012 10.7438 122.012 11.5971V11.597Z" fill="#243660"/>
<path d="M94.5269 21.1085C95.7175 21.1085 96.692 20.7579 97.4505 20.0571C98.209 19.3562 98.5881 18.4393 98.5881 17.3063C98.5881 16.1733 98.209 15.2564 97.4505 14.5556C96.692 13.8546 95.7175 13.5042 94.5269 13.5042C93.3364 13.5042 92.3571 13.8546 91.589 14.5556C90.821 15.2564 90.4369 16.1734 90.4369 17.3063C90.4369 18.4394 90.821 19.3562 91.589 20.0571C92.3571 20.7579 93.3364 21.1085 94.5269 21.1085ZM103.024 12.0119V22.9519C103.024 25.7939 102.285 27.9061 100.806 29.2886C99.3275 30.6713 97.1673 31.3626 94.3254 31.3626C92.8276 31.3626 91.4067 31.1802 90.0624 30.8153C89.4743 30.6557 88.9301 30.4647 88.4304 30.2427C87.9453 30.0273 87.6094 29.6579 87.4407 29.1546C87.272 28.6514 87.3173 28.1542 87.5744 27.6898L87.5881 27.665C88.0515 26.8279 89.0757 26.491 89.9456 26.8893C90.268 27.0369 90.6143 27.1696 90.9841 27.2868C91.9826 27.6036 92.9812 27.7621 93.9797 27.7621C95.5352 27.7621 96.6825 27.4115 97.4218 26.7107C98.1611 26.0099 98.5307 24.9488 98.5307 23.5279V22.8654C97.3593 24.1521 95.7271 24.7953 93.634 24.7953C92.2131 24.7953 90.9121 24.4832 89.731 23.8592C88.5501 23.2351 87.6139 22.3566 86.9226 21.2236C86.2314 20.0906 85.8857 18.785 85.8857 17.3063C85.8857 15.8277 86.2314 14.522 86.9226 13.389C87.6139 12.2561 88.5501 11.3776 89.731 10.7535C90.912 10.1294 92.2131 9.81738 93.634 9.81738C95.8808 9.81738 97.5896 10.5567 98.7611 12.0353V12.0119C98.7611 10.9301 99.6435 10.0478 100.725 10.0478H101.06C102.142 10.0478 103.024 10.9302 103.024 12.0119V12.0119Z" fill="#243660"/>
<path d="M80.2234 12.0929C80.7612 11.3441 81.486 10.7775 82.3982 10.3935C82.6692 10.2794 82.9525 10.1821 83.2482 10.1019C83.8153 9.948 84.3687 10.0569 84.8355 10.4138C85.3023 10.7709 85.5522 11.2765 85.5522 11.8641V12.1284C85.5522 13.0753 84.8364 13.8596 83.8935 13.9464C83.0308 14.0257 82.2201 14.2964 81.5195 14.9877C80.79 15.7076 80.4251 16.7879 80.4251 18.2282V23.3036C80.4251 24.5377 79.4185 25.5442 78.1843 25.5442H78.1724C76.9382 25.5442 75.9316 24.5377 75.9316 23.3036V12.012C75.9316 10.9302 76.814 10.0479 77.8958 10.0479H78.2592C79.3411 10.0479 80.2234 10.9303 80.2234 12.012V12.093V12.0929Z" fill="#243660"/>
<path d="M65.2122 22.0878C66.3452 22.0878 67.2862 21.6989 68.0351 20.9211C68.7839 20.1435 69.1585 19.1017 69.1585 17.796C69.1585 16.4902 68.7839 15.4484 68.0351 14.6708C67.2862 13.893 66.3452 13.5042 65.2122 13.5042C64.0602 13.5042 63.1096 13.893 62.3606 14.6708C61.6118 15.4484 61.2373 16.4902 61.2373 17.796C61.2373 19.1017 61.6118 20.1435 62.3606 20.9211C63.1096 21.6989 64.0601 22.0878 65.2122 22.0878V22.0878ZM73.5654 11.597V23.8567C73.5654 24.7862 72.8074 25.5441 71.8779 25.5441H70.961C70.0316 25.5441 69.2736 24.7862 69.2736 23.8567V23.7583C68.1598 25.1025 66.5469 25.7746 64.4347 25.7746C62.9753 25.7746 61.655 25.4481 60.4742 24.7953C59.2932 24.1425 58.3666 23.211 57.6945 22.0013C57.0225 20.7915 56.6865 19.3898 56.6865 17.796C56.6865 16.2021 57.0225 14.8004 57.6945 13.5907C58.3666 12.3808 59.2932 11.4495 60.4742 10.7967C61.655 10.1438 62.9753 9.81738 64.4347 9.81738C66.4125 9.81738 67.9583 10.4415 69.0721 11.6897V11.597C69.0721 10.7437 69.7679 10.0478 70.6213 10.0478H72.0163C72.8696 10.0478 73.5655 10.7437 73.5655 11.597H73.5654Z" fill="#243660"/>
<path d="M47.9007 19.4666L45.7405 21.5982V23.3036C45.7405 24.5377 44.7339 25.5442 43.4997 25.5442H43.4878C42.2536 25.5442 41.2471 24.5377 41.2471 23.3036V12.2887C41.2471 11.0544 42.2536 10.0479 43.4878 10.0479H43.4997C44.7339 10.0479 45.7405 11.0544 45.7405 12.2887V16.2695L47.5496 14.5557L51.7003 10.623C52.178 10.1704 52.7755 9.97773 53.4275 10.0657L53.5342 10.0801C54.3516 10.1904 54.9922 10.7231 55.25 11.5065C55.5077 12.2901 55.3085 13.0991 54.7163 13.6731L51.4157 16.8723L53.0393 18.935L54.2351 20.4544L55.5631 22.1415C56.0732 22.7896 56.1625 23.618 55.8022 24.3599C55.442 25.1019 54.7359 25.5441 53.911 25.5441H53.8033C53.1454 25.5441 52.5791 25.2732 52.1662 24.7607L47.9007 19.4666V19.4666Z" fill="#243660"/>
<g clip-path="url(#clip1_171_212)">
<path fill-rule="evenodd" clip-rule="evenodd" d="M2.82222 27.5337C1.02118 24.6429 0.120318 21.3506 0.120318 18.0586C0.120318 13.8114 1.61957 9.56381 4.61703 6.17863L7.74685 9.3081C5.60521 11.8257 4.53422 14.9423 4.53456 18.0586C4.53456 21.5193 5.85503 24.9804 8.49561 27.621C11.1365 30.2619 14.5976 31.5824 18.058 31.582C21.1739 31.582 24.2906 30.5114 26.8081 28.3697L29.938 31.4996C26.5528 34.4974 22.3052 35.9963 18.058 35.9963C14.7656 35.9963 11.4737 35.0954 8.58292 33.2947C8.70974 31.7851 8.19589 30.2314 7.04071 29.0762C5.88552 27.921 4.33187 27.4069 2.82222 27.5337V27.5337ZM0.958124 35.1585C2.23528 36.436 4.30623 36.436 5.58338 35.1585C6.86088 33.8813 6.86088 31.8104 5.58338 30.5332C4.30623 29.2557 2.23528 29.2557 0.958124 30.5332C-0.319375 31.8104 -0.319375 33.8813 0.958124 35.1585ZM18.0583 12.9185C15.2199 12.9185 12.9185 15.2195 12.9185 18.0583C12.9185 20.8971 15.2195 23.1981 18.0583 23.1981C20.8971 23.1981 23.1981 20.8971 23.1981 18.0583C23.1981 15.2195 20.8971 12.9185 18.0583 12.9185ZM35.1588 0.958108C33.8813 -0.319044 31.8107 -0.319044 30.5332 0.958108C29.2557 2.23561 29.2557 4.30621 30.5332 5.58371C31.8107 6.86121 33.8813 6.86121 35.1588 5.58371C36.4363 4.30621 36.4363 2.23561 35.1588 0.958108ZM27.534 2.82221C24.6433 1.02082 21.351 0.120302 18.0587 0.120302C13.8114 0.120302 9.56383 1.61955 6.17865 4.61736L9.30847 7.74718C11.826 5.60589 14.9427 4.53489 18.0587 4.53489C21.5194 4.53489 24.9804 5.85536 27.621 8.49594C30.2619 11.1369 31.5824 14.5979 31.582 18.0583C31.582 21.1746 30.5114 24.2909 28.3698 26.8088L31.4992 29.9386C34.497 26.5535 35.9963 22.3059 35.9963 18.0586C35.9963 14.7663 35.0958 11.4743 33.2944 8.58325C31.7847 8.71007 30.2311 8.19622 29.0759 7.04104C27.9207 5.8855 27.4065 4.3322 27.5333 2.82256L27.534 2.82221Z" fill="url(#paint1_linear_171_212)"/>
</g>
</g>
<defs>
<linearGradient id="paint0_linear_171_212" x1="123.684" y1="8.44411" x2="129.686" y2="4.63213" gradientUnits="userSpaceOnUse">
<stop stop-color="#2060FF"/>
<stop offset="0.309804" stop-color="#5C9DFF"/>
<stop offset="0.658824" stop-color="#A78DFA"/>
<stop offset="1" stop-color="#FE74F1"/>
</linearGradient>
<linearGradient id="paint1_linear_171_212" x1="15.5331" y1="33.1433" x2="18.6196" y2="14.7078" gradientUnits="userSpaceOnUse">
<stop stop-color="#46509C"/>
<stop offset="0.309804" stop-color="#6A91CB"/>
<stop offset="0.658824" stop-color="#9684BD"/>
<stop offset="1" stop-color="#CA77AE"/>
</linearGradient>
<clipPath id="clip0_171_212">
<rect width="147" height="36.1169" fill="white"/>
</clipPath>
<clipPath id="clip1_171_212">
<rect width="36.1169" height="36.1168" fill="white"/>
</clipPath>
</defs>
</svg>
