<svg width="16" height="17" viewBox="0 0 16 17" fill="none" xmlns="http://www.w3.org/2000/svg">
<g clip-path="url(#clip0)">
<path d="M8 10.5C9.10457 10.5 10 9.60457 10 8.5C10 7.39543 9.10457 6.5 8 6.5C6.89543 6.5 6 7.39543 6 8.5C6 9.60457 6.89543 10.5 8 10.5Z" stroke="black" stroke-linecap="round" stroke-linejoin="round"/>
<path d="M12.9333 10.5C12.8445 10.7011 12.8181 10.9241 12.8573 11.1404C12.8965 11.3567 12.9996 11.5562 13.1533 11.7134L13.1933 11.7534C13.3173 11.8772 13.4156 12.0242 13.4827 12.1861C13.5498 12.348 13.5843 12.5215 13.5843 12.6967C13.5843 12.8719 13.5498 13.0454 13.4827 13.2073C13.4156 13.3691 13.3173 13.5162 13.1933 13.64C13.0695 13.764 12.9224 13.8623 12.7605 13.9294C12.5987 13.9965 12.4252 14.0311 12.25 14.0311C12.0747 14.0311 11.9012 13.9965 11.7394 13.9294C11.5775 13.8623 11.4305 13.764 11.3066 13.64L11.2666 13.6C11.1095 13.4463 10.9099 13.3432 10.6937 13.304C10.4774 13.2648 10.2544 13.2913 10.0533 13.38C9.85611 13.4645 9.68795 13.6049 9.5695 13.7837C9.45105 13.9626 9.38748 14.1722 9.38663 14.3867V14.5C9.38663 14.8536 9.24615 15.1928 8.9961 15.4428C8.74605 15.6929 8.40691 15.8334 8.05329 15.8334C7.69967 15.8334 7.36053 15.6929 7.11048 15.4428C6.86044 15.1928 6.71996 14.8536 6.71996 14.5V14.44C6.7148 14.2194 6.64337 14.0054 6.51497 13.8258C6.38656 13.6463 6.20712 13.5095 5.99996 13.4334C5.79888 13.3446 5.57583 13.3181 5.35957 13.3574C5.1433 13.3966 4.94375 13.4997 4.78663 13.6534L4.74663 13.6934C4.6228 13.8173 4.47574 13.9157 4.31388 13.9828C4.15202 14.0499 3.97851 14.0844 3.80329 14.0844C3.62807 14.0844 3.45457 14.0499 3.29271 13.9828C3.13084 13.9157 2.98379 13.8173 2.85996 13.6934C2.73599 13.5695 2.63765 13.4225 2.57055 13.2606C2.50345 13.0987 2.46891 12.9252 2.46891 12.75C2.46891 12.5748 2.50345 12.4013 2.57055 12.2394C2.63765 12.0776 2.73599 11.9305 2.85996 11.8067L2.89996 11.7667C3.05365 11.6096 3.15675 11.41 3.19596 11.1937C3.23517 10.9775 3.2087 10.7544 3.11996 10.5534C3.03545 10.3562 2.89513 10.188 2.71627 10.0696C2.53741 9.95111 2.32782 9.88754 2.11329 9.88669H1.99996C1.64634 9.88669 1.3072 9.74621 1.05715 9.49616C0.807102 9.24611 0.666626 8.90698 0.666626 8.55335C0.666626 8.19973 0.807102 7.86059 1.05715 7.61055C1.3072 7.3605 1.64634 7.22002 1.99996 7.22002H2.05996C2.28062 7.21486 2.49463 7.14343 2.67416 7.01503C2.85369 6.88662 2.99044 6.70718 3.06663 6.50002C3.15537 6.29894 3.18184 6.07589 3.14263 5.85963C3.10342 5.64336 3.00032 5.44381 2.84663 5.28669L2.80663 5.24669C2.68266 5.12286 2.58431 4.9758 2.51721 4.81394C2.45011 4.65208 2.41558 4.47857 2.41558 4.30335C2.41558 4.12813 2.45011 3.95463 2.51721 3.79277C2.58431 3.6309 2.68266 3.48385 2.80663 3.36002C2.93046 3.23605 3.07751 3.13771 3.23937 3.07061C3.40124 3.00351 3.57474 2.96897 3.74996 2.96897C3.92518 2.96897 4.09868 3.00351 4.26055 3.07061C4.42241 3.13771 4.56946 3.23605 4.69329 3.36002L4.73329 3.40002C4.89041 3.55371 5.08997 3.65681 5.30623 3.69602C5.5225 3.73524 5.74555 3.70876 5.94663 3.62002H5.99996C6.19714 3.53551 6.3653 3.39519 6.48375 3.21633C6.60221 3.03747 6.66577 2.82788 6.66663 2.61335V2.50002C6.66663 2.1464 6.8071 1.80726 7.05715 1.55721C7.3072 1.30716 7.64634 1.16669 7.99996 1.16669C8.35358 1.16669 8.69272 1.30716 8.94277 1.55721C9.19282 1.80726 9.33329 2.1464 9.33329 2.50002V2.56002C9.33415 2.77454 9.39771 2.98414 9.51616 3.163C9.63461 3.34186 9.80278 3.48218 9.99996 3.56669C10.201 3.65543 10.4241 3.6819 10.6404 3.64269C10.8566 3.60348 11.0562 3.50038 11.2133 3.34669L11.2533 3.30669C11.3771 3.18272 11.5242 3.08437 11.686 3.01727C11.8479 2.95018 12.0214 2.91564 12.1966 2.91564C12.3718 2.91564 12.5453 2.95018 12.7072 3.01727C12.8691 3.08437 13.0161 3.18272 13.14 3.30669C13.2639 3.43052 13.3623 3.57757 13.4294 3.73943C13.4965 3.9013 13.531 4.0748 13.531 4.25002C13.531 4.42524 13.4965 4.59874 13.4294 4.76061C13.3623 4.92247 13.2639 5.06952 13.14 5.19335L13.1 5.23335C12.9463 5.39047 12.8432 5.59003 12.804 5.80629C12.7647 6.02256 12.7912 6.24561 12.88 6.44669V6.50002C12.9645 6.6972 13.1048 6.86537 13.2836 6.98382C13.4625 7.10227 13.6721 7.16583 13.8866 7.16669H14C14.3536 7.16669 14.6927 7.30716 14.9428 7.55721C15.1928 7.80726 15.3333 8.1464 15.3333 8.50002C15.3333 8.85364 15.1928 9.19278 14.9428 9.44283C14.6927 9.69288 14.3536 9.83335 14 9.83335H13.94C13.7254 9.83421 13.5158 9.89778 13.337 10.0162C13.1581 10.1347 13.0178 10.3028 12.9333 10.5V10.5Z" stroke="black" stroke-linecap="round" stroke-linejoin="round"/>
</g>
<defs>
<clipPath id="clip0">
<rect width="16" height="16" fill="white" transform="translate(0 0.5)"/>
</clipPath>
</defs>
</svg>
