<?xml version="1.0" standalone="no"?>
<!DOCTYPE svg PUBLIC "-//W3C//DTD SVG 20010904//EN"
 "http://www.w3.org/TR/2001/REC-SVG-20010904/DTD/svg10.dtd">
<svg version="1.0" xmlns="http://www.w3.org/2000/svg"
 width="1630.000000pt" height="1630.000000pt" viewBox="0 0 1630.000000 1630.000000"
 preserveAspectRatio="xMidYMid meet">
<metadata>
Created by potrace 1.14, written by Peter Selinger 2001-2017
</metadata>
<g transform="translate(0.000000,1630.000000) scale(0.100000,-0.100000)"
fill="#000000" stroke="none">
<path d="M14699 16295 c-2 -1 -35 -6 -73 -10 -38 -3 -73 -8 -76 -10 -4 -2 -22
-7 -41 -10 -124 -21 -343 -111 -479 -198 -203 -129 -388 -328 -503 -539 -77
-141 -145 -343 -162 -483 -4 -27 -8 -61 -11 -75 -6 -34 -5 -279 1 -310 3 -14
8 -45 11 -70 8 -59 10 -67 24 -120 7 -25 13 -49 14 -55 7 -35 45 -134 86 -220
40 -86 130 -239 149 -255 3 -3 23 -26 43 -51 68 -85 140 -155 244 -239 167
-135 472 -263 679 -286 33 -3 69 -8 80 -10 27 -6 262 -4 305 1 19 3 60 10 90
16 30 6 69 13 85 16 99 17 321 110 435 181 156 98 338 272 436 417 122 180
218 412 241 585 3 19 8 62 13 95 13 100 3 330 -19 442 -102 497 -435 899 -902
1086 -87 35 -257 81 -339 92 -51 7 -326 15 -331 10z"/>
<path d="M7957 16244 c-1 -1 -76 -5 -167 -9 -187 -8 -227 -10 -325 -19 -38 -4
-95 -9 -125 -12 -54 -4 -121 -12 -170 -19 -14 -2 -50 -7 -80 -10 -57 -6 -76
-9 -170 -25 -30 -5 -75 -12 -100 -15 -25 -3 -52 -8 -60 -10 -8 -3 -31 -7 -50
-9 -50 -7 -199 -38 -440 -91 -206 -45 -793 -222 -897 -270 -17 -8 -35 -15 -40
-15 -7 0 -259 -99 -328 -129 -358 -155 -703 -329 -973 -490 -24 -14 -51 -30
-61 -36 -333 -195 -796 -534 -1158 -849 l-24 -20 703 -703 c387 -387 707 -703
711 -703 8 0 78 56 132 103 39 35 281 214 390 288 494 337 1058 608 1640 786
241 74 660 170 821 188 32 4 61 9 64 10 3 2 30 6 60 10 30 3 62 8 70 10 8 2
49 7 90 10 41 4 82 8 90 10 14 3 107 9 290 21 64 4 545 4 605 0 200 -14 257
-18 282 -21 15 -2 57 -6 93 -10 36 -4 76 -8 90 -10 221 -31 248 -36 480 -81
72 -14 334 -77 395 -95 154 -46 364 -114 440 -141 852 -314 1597 -790 2230
-1424 200 -200 318 -335 528 -599 139 -175 341 -482 486 -738 66 -117 261
-507 261 -522 0 -3 9 -25 19 -48 110 -243 231 -605 310 -922 42 -169 72 -310
95 -445 3 -19 8 -48 11 -65 10 -57 38 -276 50 -385 5 -43 12 -141 20 -280 6
-91 6 -530 0 -620 -15 -241 -26 -354 -60 -597 -11 -79 -36 -221 -55 -308 -10
-49 -21 -102 -24 -117 -7 -42 -64 -263 -96 -373 -67 -231 -191 -574 -280 -770
-218 -486 -510 -962 -837 -1362 -45 -57 -83 -106 -83 -111 0 -4 316 -323 703
-710 l703 -703 79 93 c135 157 294 358 417 526 65 89 302 447 365 552 129 213
366 654 360 670 -1 3 8 19 21 37 12 17 22 34 22 37 0 3 21 52 46 108 57 127
75 170 98 228 10 25 22 53 28 63 10 20 43 109 125 332 54 149 171 524 199 640
8 33 16 67 18 75 2 8 13 51 24 95 11 44 23 94 26 110 3 17 18 93 35 170 16 77
32 156 35 175 3 19 12 73 20 120 8 47 17 103 21 125 3 23 7 50 9 60 2 11 7 49
11 85 3 36 8 72 10 80 2 8 7 48 10 89 4 41 8 82 10 91 2 9 6 59 10 111 4 52 8
110 10 129 23 238 23 878 0 1120 -2 19 -6 77 -10 129 -4 51 -8 101 -10 110 -1
9 -6 50 -10 91 -3 41 -8 82 -10 90 -2 8 -7 43 -10 77 -3 34 -8 72 -10 84 -3
13 -7 41 -10 64 -3 22 -8 51 -10 65 -3 14 -7 40 -10 58 -10 60 -47 261 -59
321 -28 129 -62 276 -87 371 -16 63 -31 122 -33 130 -44 176 -189 609 -286
850 -155 389 -392 868 -569 1150 -22 36 -48 79 -56 96 -14 27 -21 31 -48 28
-91 -10 -354 -4 -462 11 -157 22 -238 38 -360 72 -296 82 -610 243 -853 436
-91 73 -290 269 -353 347 -24 30 -47 57 -50 60 -4 3 -44 61 -90 130 -87 129
-186 314 -234 435 -15 39 -31 79 -36 90 -30 72 -104 365 -114 449 -2 17 -6 54
-10 81 -3 28 -7 68 -10 90 -4 44 -5 336 -1 375 3 29 -4 34 -254 178 -232 134
-553 295 -795 399 -146 63 -449 183 -500 197 -5 2 -21 8 -35 13 -62 26 -527
169 -610 188 -8 2 -61 15 -117 29 -56 14 -134 33 -175 42 -40 8 -82 17 -93 20
-11 2 -33 7 -50 10 -16 3 -57 11 -90 18 -33 8 -82 17 -110 22 -27 4 -54 8 -60
10 -5 1 -28 5 -50 8 -22 4 -51 9 -65 11 -91 15 -282 41 -370 50 -25 2 -63 7
-85 9 -41 5 -178 16 -250 21 -183 13 -749 27 -758 19z"/>
<path d="M2000 13413 c-154 -183 -217 -263 -326 -408 -412 -549 -754 -1148
-1004 -1760 -29 -71 -58 -143 -65 -160 -60 -139 -229 -653 -264 -800 -5 -22
-25 -102 -45 -177 -19 -76 -45 -184 -56 -240 -12 -57 -23 -112 -26 -123 -11
-52 -27 -140 -45 -250 -28 -170 -27 -165 -34 -215 -3 -25 -7 -61 -10 -80 -3
-19 -7 -53 -9 -75 -3 -22 -7 -58 -10 -80 -9 -71 -26 -257 -31 -330 -22 -340
-22 -909 0 -1125 2 -19 6 -73 10 -120 3 -47 8 -96 10 -110 2 -14 7 -56 10 -95
5 -64 9 -92 20 -165 2 -14 7 -47 10 -75 28 -230 110 -643 180 -905 19 -74 38
-144 40 -155 6 -23 44 -151 86 -285 82 -259 235 -656 334 -867 25 -53 45 -97
45 -99 0 -18 232 -463 292 -562 21 -34 38 -64 38 -67 0 -2 27 -49 61 -105 59
-98 72 -109 114 -100 25 5 297 1 355 -5 139 -14 161 -17 280 -41 281 -57 524
-154 798 -319 67 -40 245 -173 298 -221 87 -80 114 -106 174 -170 36 -38 81
-89 100 -113 19 -24 40 -48 46 -55 18 -19 108 -148 150 -216 88 -141 186 -350
234 -499 22 -69 60 -207 66 -235 2 -12 6 -32 9 -46 13 -59 35 -222 41 -300 7
-85 7 -327 1 -365 -4 -21 7 -29 203 -143 276 -160 481 -263 850 -430 205 -92
808 -312 858 -312 7 0 20 -4 30 -10 16 -9 158 -49 317 -90 73 -18 290 -68 410
-94 72 -15 341 -62 407 -70 21 -3 53 -7 70 -10 99 -16 251 -33 458 -51 193
-17 449 -28 655 -28 165 0 513 11 556 17 13 3 67 7 119 11 52 3 113 8 135 10
113 12 194 21 250 29 17 3 68 10 115 16 47 6 96 13 110 16 14 2 63 11 110 19
89 15 103 18 215 40 39 8 81 16 95 19 134 25 549 133 720 188 123 39 368 123
400 136 14 6 75 30 135 53 502 191 1038 468 1518 787 152 100 407 282 435 309
7 7 16 13 20 13 4 0 21 12 37 28 17 15 55 46 85 69 30 23 67 53 82 65 14 13
61 52 103 88 43 36 91 76 106 90 l29 25 -707 707 -708 708 -45 -42 c-35 -33
-222 -176 -425 -326 -5 -4 -73 -48 -150 -98 -136 -89 -201 -128 -308 -188 -29
-15 -63 -35 -76 -43 -48 -31 -259 -137 -386 -195 -404 -186 -837 -330 -1265
-421 -181 -39 -228 -48 -263 -53 -17 -2 -48 -6 -67 -9 -19 -3 -78 -12 -130
-20 -83 -12 -125 -17 -265 -31 -274 -27 -902 -26 -1135 1 -19 2 -66 7 -105 11
-38 3 -79 8 -90 10 -11 2 -40 7 -65 10 -25 3 -74 10 -110 16 -36 5 -74 11 -85
13 -358 56 -946 220 -1230 344 -11 5 -60 26 -110 46 -500 207 -992 500 -1445
859 -63 50 -122 98 -130 106 -14 13 -116 103 -174 153 -73 63 -362 356 -436
442 -19 23 -64 74 -100 114 -36 40 -72 83 -80 95 -14 21 -89 115 -100 126 -19
19 -150 201 -150 209 0 5 -4 11 -9 13 -13 5 -207 304 -291 448 -104 180 -246
461 -322 640 -11 25 -28 63 -38 85 -9 22 -28 69 -40 105 -13 36 -26 70 -30 75
-9 13 -101 287 -134 400 -15 50 -31 104 -36 120 -28 94 -99 402 -115 500 -3
17 -7 41 -10 55 -3 14 -7 41 -10 60 -3 19 -10 58 -15 85 -5 28 -12 75 -15 105
-3 30 -8 62 -10 70 -2 8 -7 49 -10 90 -4 41 -8 82 -10 90 -27 144 -27 933 1
1155 2 17 6 59 9 94 3 35 12 107 20 160 8 53 17 114 20 136 3 22 10 63 15 90
6 28 12 66 15 85 5 29 20 98 80 366 3 11 23 83 45 160 22 76 42 146 44 154 13
47 101 299 112 322 8 15 15 31 15 35 3 18 70 185 105 261 13 29 24 56 24 59 0
13 189 388 241 478 147 257 295 484 458 700 57 77 107 142 110 145 3 3 29 32
58 66 l52 61 -702 701 c-386 386 -705 704 -708 707 -4 3 -43 -38 -89 -92z"/>
<path d="M7930 10459 c-30 -4 -80 -10 -110 -13 -131 -15 -372 -79 -515 -136
-760 -303 -1308 -975 -1439 -1765 -26 -154 -28 -175 -31 -360 -3 -173 2 -249
26 -400 6 -38 12 -79 14 -90 6 -45 66 -257 95 -334 230 -626 699 -1110 1320
-1365 138 -56 372 -119 520 -140 117 -17 162 -19 315 -20 198 -1 311 8 451 35
708 136 1308 583 1637 1219 96 187 177 420 212 608 3 15 7 36 9 48 2 12 7 45
11 74 4 29 9 62 12 74 9 40 12 412 3 476 -9 69 -33 232 -35 240 -163 736 -611
1311 -1270 1629 -84 41 -275 118 -310 125 -5 2 -34 10 -64 19 -61 19 -281 64
-356 73 -78 9 -434 12 -495 3z"/>
<path d="M1457 2955 c-1 -1 -45 -5 -98 -8 -238 -15 -496 -104 -705 -246 -329
-223 -545 -550 -625 -946 -17 -85 -22 -145 -22 -265 -1 -171 3 -208 37 -366
19 -91 106 -302 163 -399 49 -82 164 -227 239 -300 191 -188 426 -318 687
-380 121 -29 176 -36 317 -39 682 -17 1289 444 1456 1106 14 55 27 116 29 136
3 20 8 55 11 76 7 41 6 271 0 318 -26 182 -70 332 -140 481 -35 74 -133 229
-175 277 -12 14 -42 48 -66 76 -53 61 -185 174 -273 233 -149 100 -384 196
-532 216 -24 4 -48 9 -51 11 -9 5 -246 23 -252 19z"/>
</g>
</svg>
