<?xml version="1.0" encoding="UTF-8"?>
<!DOCTYPE svg PUBLIC "-//W3C//DTD SVG 1.1//EN" "http://www.w3.org/Graphics/SVG/1.1/DTD/svg11.dtd">
<!-- Creator: CorelDRAW 2020 (64-Bit) -->
<svg xmlns="http://www.w3.org/2000/svg" xml:space="preserve" width="172.068mm" height="42.2759mm" version="1.1" style="shape-rendering:geometricPrecision; text-rendering:geometricPrecision; image-rendering:optimizeQuality; fill-rule:evenodd; clip-rule:evenodd"
viewBox="0 0 17200.96 4226.16"
 xmlns:xlink="http://www.w3.org/1999/xlink"
 xmlns:xodm="http://www.corel.com/coreldraw/odm/2003">
 <defs>
  <style type="text/css">
   <![CDATA[
    .fil1 {fill:#243660;fill-rule:nonzero}
    .fil0 {fill:url(#id0)}
    .fil2 {fill:url(#id1)}
   ]]>
  </style>
  <linearGradient id="id0" gradientUnits="userSpaceOnUse" x1="14472.72" y1="988.07" x2="15174.98" y2="542.02">
   <stop offset="0" style="stop-opacity:1; stop-color:#2060FF"/>
   <stop offset="0.309804" style="stop-opacity:1; stop-color:#5C9DFF"/>
   <stop offset="0.658824" style="stop-opacity:1; stop-color:#A78DFA"/>
   <stop offset="1" style="stop-opacity:1; stop-color:#FE74F1"/>
  </linearGradient>
  <linearGradient id="id1" gradientUnits="userSpaceOnUse" xlink:href="#id0" x1="1638.59" y1="3848.06" x2="1999.72" y2="1691.03">
  </linearGradient>
 </defs>
 <g id="Слой_x0020_1">
  <metadata id="CorelCorpID_0Corel-Layer"/>
  <path class="fil0" d="M14806.88 1063.67c-96.62,0 -175.26,-28.1 -235.94,-84.26 -60.66,-56.18 -90.99,-125.84 -90.99,-208.97 0,-83.14 30.33,-152.8 90.99,-208.97 60.68,-56.17 139.32,-84.25 235.94,-84.25 96.62,0 175.26,26.94 235.93,80.87 60.68,53.93 91.01,121.34 91.01,202.23 0,87.63 -30.33,160.09 -91.01,217.39 -60.67,57.31 -139.31,85.96 -235.93,85.96z"/>
  <g id="_3121260421328">
   <path class="fil1" d="M16449.36 1148.77c224.68,0 406.13,67.41 544.32,202.22 138.19,134.81 207.29,334.8 207.29,599.93l0 775.91c0,144.41 -117.78,262.19 -262.2,262.19l-1.39 0c-144.42,0 -262.2,-117.78 -262.2,-262.19l0 -695.01c0,-143.8 -31.47,-251.09 -94.38,-321.87 -62.91,-70.78 -153.92,-106.15 -273.01,-106.15 -132.56,0 -238.17,41 -316.81,123.01 -78.64,82.02 -117.97,203.91 -117.97,365.7l0 634.34c0,144.41 -117.78,262.19 -262.2,262.19l-1.39 0c-144.42,0 -262.2,-117.78 -262.2,-262.19l0 -1369.82c0,-99.85 81.43,-181.28 181.28,-181.28l139.64 0c99.85,0 181.27,81.43 181.27,181.28l0 31.06c69.67,-76.39 156.18,-135.37 259.53,-176.95 103.35,-41.57 216.84,-62.35 340.42,-62.35z"/>
   <path class="fil1" d="M14806.18 1175.73l1.39 0c144.42,0 262.2,117.78 262.2,262.2l0 1288.89c0,144.41 -117.78,262.19 -262.2,262.19l-1.39 0c-144.42,0 -262.2,-117.78 -262.2,-262.19l0 -1288.89c0,-144.42 117.78,-262.2 262.2,-262.2z"/>
   <path class="fil1" d="M13299.63 2584.57c132.58,0 242.68,-45.5 330.31,-136.51 87.63,-90.99 131.46,-212.9 131.46,-365.69 0,-152.79 -43.83,-274.69 -131.46,-365.69 -87.63,-91.01 -197.73,-136.5 -330.31,-136.5 -134.8,0 -246.03,45.49 -333.67,136.5 -87.63,91 -131.45,212.9 -131.45,365.69 0,152.79 43.82,274.7 131.45,365.69 87.64,91.01 198.86,136.51 333.67,136.51zm977.44 -1227.56l0 1450.74c0,99.85 -81.42,181.27 -181.27,181.27l-139.66 0c-99.85,0 -181.28,-81.42 -181.28,-181.27l0 -27.69c-130.33,157.29 -319.05,235.93 -566.22,235.93 -170.77,0 -325.26,-38.2 -463.43,-114.59 -138.18,-76.39 -246.61,-185.39 -325.25,-326.94 -78.64,-141.56 -117.96,-305.58 -117.96,-492.08 0,-186.5 39.32,-350.52 117.96,-492.07 78.64,-141.57 187.07,-250.55 325.25,-326.94 138.17,-76.39 292.66,-114.59 463.43,-114.59 231.43,0 412.31,73.03 542.64,219.09l0 -10.85c0,-99.85 81.43,-181.28 181.28,-181.28l163.24 0c99.85,0 181.27,81.43 181.27,181.28z"/>
   <path class="fil1" d="M11060.9 2469.98c139.32,0 253.35,-41.02 342.1,-123.03 88.76,-82.01 133.12,-189.3 133.12,-321.87 0,-132.58 -44.36,-239.87 -133.12,-321.87 -88.75,-82.03 -202.78,-123.03 -342.1,-123.03 -139.3,0 -253.89,41 -343.77,123.03 -89.87,82 -134.81,189.3 -134.81,321.87 0,132.58 44.94,239.86 134.81,321.87 89.88,82.01 204.47,123.03 343.77,123.03zm994.29 -1064.42l0 1280.12c0,332.56 -86.51,579.71 -259.53,741.49 -173.02,161.79 -425.8,242.68 -758.34,242.68 -175.26,0 -341.53,-21.34 -498.82,-64.04 -68.82,-18.68 -132.5,-41.02 -190.97,-67 -56.77,-25.21 -96.07,-68.43 -115.81,-127.33 -19.74,-58.88 -14.44,-117.05 15.65,-171.4l1.6 -2.9c54.22,-97.95 174.07,-137.37 275.86,-90.76 37.72,17.26 78.24,32.79 121.52,46.51 116.83,37.07 233.68,55.61 350.52,55.61 182.01,0 316.26,-41.02 402.77,-123.02 86.51,-82.01 129.76,-206.17 129.76,-372.44l0 -77.52c-137.07,150.56 -328.06,225.83 -572.98,225.83 -166.26,0 -318.5,-36.52 -456.7,-109.54 -138.18,-73.03 -247.73,-175.82 -328.62,-308.4 -80.88,-132.57 -121.33,-285.35 -121.33,-458.37 0,-173.02 40.45,-325.81 121.33,-458.38 80.89,-132.57 190.44,-235.36 328.62,-308.39 138.19,-73.03 290.43,-109.54 456.7,-109.54 262.9,0 462.86,86.51 599.94,259.53l0 -2.74c0,-126.59 103.25,-229.83 229.83,-229.83l39.17 0c126.59,0 229.83,103.25 229.83,229.83z"/>
   <path class="fil1" d="M9387.22 1415.03c62.93,-87.62 147.74,-153.92 254.48,-198.85 31.72,-13.35 64.87,-24.74 99.46,-34.12 66.36,-18.01 131.12,-5.27 185.74,36.5 54.62,41.78 83.86,100.94 83.86,169.7l0 30.92c0,110.8 -83.75,202.58 -194.08,212.74 -100.95,9.27 -195.82,40.95 -277.79,121.84 -85.37,84.24 -128.07,210.65 -128.07,379.18l0 593.89c0,144.41 -117.78,262.19 -262.2,262.19l-1.39 0c-144.42,0 -262.2,-117.78 -262.2,-262.19l0 -1321.26c0,-126.59 103.25,-229.83 229.83,-229.83l42.53 0c126.59,0 229.83,103.25 229.83,229.83l0 9.47z"/>
   <path class="fil1" d="M7630.68 2584.57c132.58,0 242.68,-45.5 330.31,-136.51 87.62,-90.99 131.46,-212.9 131.46,-365.69 0,-152.79 -43.84,-274.69 -131.46,-365.69 -87.63,-91.01 -197.73,-136.5 -330.31,-136.5 -134.8,0 -246.03,45.49 -333.68,136.5 -87.62,91 -131.44,212.9 -131.44,365.69 0,152.79 43.82,274.7 131.44,365.69 87.65,91.01 198.87,136.51 333.68,136.51zm977.44 -1227.56l0 1434.55c0,108.76 -88.7,197.45 -197.46,197.45l-107.29 0c-108.76,0 -197.45,-88.69 -197.45,-197.45l0 -11.51c-130.33,157.29 -319.06,235.93 -566.22,235.93 -170.77,0 -325.26,-38.2 -463.43,-114.59 -138.19,-76.39 -246.62,-185.39 -325.26,-326.94 -78.64,-141.56 -117.95,-305.58 -117.95,-492.08 0,-186.5 39.31,-350.52 117.95,-492.07 78.64,-141.57 187.07,-250.55 325.26,-326.94 138.17,-76.39 292.66,-114.59 463.43,-114.59 231.43,0 412.31,73.03 542.64,219.09l0 -10.85c0,-99.85 81.42,-181.28 181.27,-181.28l163.24 0c99.85,0 181.28,81.43 181.28,181.28z"/>
   <path class="fil1" d="M5605.02 2277.86l-252.78 249.42 0 199.55c0,144.41 -117.78,262.19 -262.2,262.19l-1.39 0c-144.42,0 -262.2,-117.78 -262.2,-262.19l0 -1288.89c0,-144.42 117.78,-262.2 262.2,-262.2l1.39 0c144.42,0 262.2,117.78 262.2,262.2l0 465.81 211.69 -200.54 485.69 -460.17c55.9,-52.97 125.81,-75.51 202.11,-65.22l12.48 1.69c95.65,12.9 170.61,75.24 200.77,166.91 30.16,91.69 6.85,186.35 -62.45,253.52l-386.21 374.35 189.98 241.36 139.93 177.79 155.39 197.41c59.69,75.84 70.14,172.77 27.98,259.59 -42.15,86.82 -124.78,138.57 -221.3,138.57l-12.6 0c-76.98,0 -143.25,-31.7 -191.57,-91.67l-499.11 -619.49z"/>
  </g>
  <path class="fil2" d="M330.22 3221.83c-210.74,-338.27 -316.15,-723.48 -316.13,-1108.72 -0.02,-496.99 175.41,-994.01 526.19,-1390.13l366.22 366.21c-250.59,294.61 -375.89,659.29 -375.87,1023.92 -0.02,404.94 154.5,809.94 463.5,1118.94 309.01,309.01 714,463.52 1118.94,463.5 364.63,0.02 729.3,-125.3 1023.91,-375.87l366.22 366.22c-396.13,350.78 -893.15,526.2 -1390.13,526.19 -385.24,0.01 -770.47,-105.39 -1108.72,-316.14 14.84,-176.64 -45.31,-358.44 -180.49,-493.62 -135.18,-135.18 -316.98,-195.33 -493.63,-180.49zm-218.11 892.23c-149.48,-149.46 -149.48,-391.79 0,-541.25 149.46,-149.47 391.79,-149.47 541.24,0 149.48,149.46 149.48,391.79 0,541.25 -149.45,149.47 -391.78,149.47 -541.24,0zm2000.97 -2602.41c332.17,0 601.44,269.26 601.44,601.43 0,332.17 -269.27,601.43 -601.44,601.43 -332.17,0 -601.43,-269.26 -601.43,-601.43 0,-332.17 269.26,-601.43 601.43,-601.43zm2000.98 -1399.55c-149.48,-149.46 -391.79,-149.46 -541.26,0 -149.48,149.47 -149.48,391.78 0,541.26 149.47,149.47 391.78,149.47 541.26,0 149.46,-149.48 149.46,-391.79 0,-541.26zm-892.21 218.11c-338.28,-210.77 -723.5,-316.15 -1108.74,-316.15 -496.98,0 -994,175.42 -1390.13,526.2l366.22 366.22c294.61,-250.58 659.29,-375.89 1023.91,-375.87 404.94,-0.02 809.94,154.51 1118.94,463.51 309.01,309.01 463.52,714 463.51,1118.93 0.01,364.64 -125.3,729.31 -375.87,1023.92l366.21 366.22c350.78,-396.13 526.21,-893.15 526.21,-1390.14 0,-385.24 -105.39,-770.46 -316.15,-1108.74 -176.65,14.84 -358.43,-45.28 -493.62,-180.47 -135.18,-135.19 -195.32,-316.98 -180.48,-493.62z"/>
 </g>
</svg>
