<svg width="80" height="58" viewBox="0 0 80 58" fill="none" xmlns="http://www.w3.org/2000/svg">
    <path d="M76.9722 19.0388L70.9239 12.7513C68.8911 10.6381 66.0434 9.42603 63.1111 9.42603H58.9364V2.6915L61.0355 2.52181C61.6806 2.46963 62.1612 1.90447 62.1091 1.25931C62.0569 0.614314 61.4919 0.133845 60.8466 0.18572L16.2153 3.79385C15.5703 3.84603 15.0895 4.41119 15.1417 5.05635C15.1912 5.66931 15.7041 6.13384 16.3084 6.13384C16.3402 6.13384 16.372 6.1326 16.4042 6.12994L17.9387 6.00588V9.42619H12.3508C5.54062 9.42619 0 14.9668 0 21.777V46.8476C0 48.4623 1.31359 49.7759 2.92828 49.7759H9.79172C10.3725 54.3049 14.2686 57.8182 18.9767 57.8182C23.6848 57.8182 27.5808 54.3049 28.1617 49.7759H37.6092C38.2564 49.7759 38.7811 49.2512 38.7811 48.604C38.7811 47.9568 38.2564 47.4321 37.6092 47.4321H28.1617C28.0406 46.4884 27.7762 45.5893 27.3898 44.7563H54.8939C54.5075 45.5892 54.243 46.4884 54.122 47.4321H42.2969C41.6495 47.4321 41.125 47.9568 41.125 48.604C41.125 49.2512 41.6495 49.7759 42.2969 49.7759H54.122C54.7028 54.3049 58.5989 57.8182 63.307 57.8182C68.0152 57.8182 71.9112 54.3049 72.492 49.7759H77.0719C78.6866 49.7759 80.0002 48.4623 80.0002 46.8476V26.5545C80 23.7379 78.9248 21.069 76.9722 19.0388ZM77.6562 37.4592H74.267C74.0928 37.4592 73.9509 37.3174 73.9509 37.1431V33.4788C73.9509 33.3045 74.0927 33.1628 74.267 33.1628H77.6562V37.4592ZM77.6428 26.0903H60.5667C60.5511 26.0903 60.5384 26.0776 60.5384 26.062V19.9492C60.5384 19.9335 60.5511 19.9209 60.5667 19.9209H74.5683L75.2828 20.6637C76.7056 22.1427 77.5331 24.0549 77.6428 26.0903ZM2.34375 46.8476V44.7563H10.5636C10.1772 45.5892 9.91281 46.4884 9.79172 47.4321H2.92828C2.60594 47.4321 2.34375 47.1699 2.34375 46.8476ZM18.9767 55.4743C15.1617 55.4743 12.058 52.3923 12.058 48.6038C12.058 44.8154 15.1617 41.7334 18.9767 41.7334C22.7917 41.7334 25.8955 44.8154 25.8955 48.6038C25.8955 52.3923 22.7917 55.4743 18.9767 55.4743ZM25.8308 42.4126C24.1352 40.5567 21.6903 39.3898 18.9766 39.3898C16.2628 39.3898 13.8181 40.5568 12.1223 42.4126H2.34375V21.777C2.34375 16.259 6.83281 11.7699 12.3508 11.7699H35.3125C35.9597 11.7699 36.4844 11.2453 36.4844 10.5981C36.4844 9.95088 35.9597 9.42619 35.3125 9.42619H20.2825V5.81635L56.5927 2.88088V9.42619H40C39.3528 9.42619 38.8281 9.95088 38.8281 10.5981C38.8281 11.2453 39.3528 11.7699 40 11.7699H63.1109C65.4094 11.7699 67.6413 12.7199 69.2345 14.3763L72.3136 17.5771H60.5666C59.2586 17.5771 58.1945 18.6412 58.1945 19.9492V26.062C58.1945 27.3699 59.2586 28.434 60.5666 28.434H77.6562V30.8192H74.267C72.8005 30.8192 71.6072 32.0124 71.6072 33.479V37.1432C71.6072 38.6098 72.8005 39.8031 74.267 39.8031H77.6562V42.4128H70.2391C70.2139 42.4128 70.1892 42.4149 70.1645 42.4165C68.4688 40.5584 66.0225 39.3898 63.307 39.3898C60.5933 39.3898 58.1484 40.5568 56.4528 42.4126H25.8308ZM63.307 55.4743C59.492 55.4743 56.3883 52.3923 56.3883 48.6038C56.3883 44.8154 59.492 41.7334 63.307 41.7334C67.122 41.7334 70.2258 44.8154 70.2258 48.6038C70.2258 52.3923 67.122 55.4743 63.307 55.4743ZM77.6562 46.8476C77.6562 47.1699 77.3939 47.4321 77.0717 47.4321H72.4919C72.3708 46.4884 72.1064 45.5893 71.72 44.7563H77.6562V46.8476Z" fill="#999999"/>
</svg>
