<svg width="80" height="60" viewBox="0 0 80 60" fill="none" xmlns="http://www.w3.org/2000/svg">
    <path d="M58.3928 36.1013H59.5398C60.1889 36.1013 60.7149 35.5751 60.7149 34.9261C60.7149 34.2771 60.1889 33.751 59.5398 33.751H58.3928C57.7436 33.751 57.2176 34.2771 57.2176 34.9261C57.2176 35.5751 57.7436 36.1013 58.3928 36.1013Z" fill="#999999"/>
    <path d="M79.9303 30.2642C79.9303 27.8634 78.1376 25.8 75.76 25.4647L67.9281 24.3603L62.0358 18.2115C63.5582 17.6401 64.6447 16.17 64.6447 14.4505V4.57117C64.6447 2.35669 62.8431 0.555088 60.6286 0.555088H9.61127C8.96211 0.555088 8.43611 1.08125 8.43611 1.73025C8.43611 2.37926 8.96211 2.90542 9.61127 2.90542H60.6286C61.5471 2.90542 62.2943 3.65266 62.2943 4.57117V6.07413H53.3268C52.6776 6.07413 52.1516 6.60029 52.1516 7.24929C52.1516 7.8983 52.6776 8.42446 53.3268 8.42446H62.2943V10.853H53.3268C52.6776 10.853 52.1516 11.3791 52.1516 12.0281C52.1516 12.6771 52.6776 13.2033 53.3268 13.2033H62.2943V14.4504C62.2943 15.3689 61.5471 16.1161 60.6286 16.1161H54.3352C53.1074 16.1161 52.1085 17.115 52.1085 18.3428V44.1997H46.8424C46.1932 44.1997 45.6672 44.7259 45.6672 45.3749C45.6672 46.0239 46.1932 46.5501 46.8424 46.5501H54.7109C54.3374 47.362 54.0806 48.2371 53.9612 49.155H33.0444C32.925 48.2371 32.6683 47.362 32.2946 46.5501H42.1415C42.7907 46.5501 43.3167 46.0239 43.3167 45.3749C43.3167 44.7259 42.7907 44.1997 42.1415 44.1997H30.7351C29.058 42.3674 26.6421 41.2156 23.9608 41.2156C21.2796 41.2156 18.8636 42.3674 17.1865 44.1997H2.35033V2.90526H4.91062C5.55978 2.90526 6.08578 2.3791 6.08578 1.7301C6.08578 1.08109 5.55978 0.554932 4.91062 0.554932H2.2267C0.99889 0.554932 0 1.55382 0 2.78179L0.00313377 49.0676C0.00313377 50.4118 1.09682 51.5055 2.44105 51.5055H14.8774C15.459 55.9779 19.3094 59.4449 23.961 59.4449C28.6126 59.4449 32.4629 55.9779 33.0445 51.5055H53.9612C54.5428 55.9779 58.3933 59.4449 63.0449 59.4449C67.6965 59.4449 71.5468 55.9779 72.1284 51.5055H77.4613C78.8613 51.5055 80.0002 50.3665 80.0002 48.9665L79.9303 30.2642ZM77.5799 30.2695L77.5962 33.8389H74.4267C74.0378 33.8389 73.7215 33.5225 73.7215 33.1338V27.551L75.4317 27.7921C76.6564 27.9646 77.5799 29.0274 77.5799 30.2695ZM59.06 18.4665C59.1023 18.5343 59.152 18.599 59.2095 18.659L66.1345 25.8857C66.1186 26.1592 66.1049 26.5334 66.0929 27.0659C66.0691 28.1371 65.1784 29.0088 64.1076 29.0088H54.4587V18.4665H59.06ZM54.4588 44.1999V31.3593H64.1077C66.4461 31.3593 68.3908 29.4568 68.4428 27.1185C68.4453 27.006 68.448 26.9032 68.4506 26.8078L71.3713 27.2196V33.1338C71.3713 34.8185 72.742 36.1892 74.4269 36.1892H77.6072L77.644 44.1999H69.8193C68.1423 42.3676 65.7263 41.2158 63.045 41.2158C60.3636 41.2158 57.9478 42.3676 56.2706 44.1999H54.4588ZM2.35331 49.0676V46.5502H15.6269C15.2533 47.3622 14.9965 48.2373 14.8771 49.1552H2.44074C2.39279 49.1552 2.35331 49.1158 2.35331 49.0676ZM23.9608 57.0946C20.2047 57.0946 17.1488 54.0602 17.1488 50.3303C17.1488 46.6005 20.2047 43.5661 23.9608 43.5661C27.7169 43.5661 30.7728 46.6005 30.7728 50.3303C30.7728 54.0602 27.7169 57.0946 23.9608 57.0946ZM63.0447 57.0946C59.2884 57.0946 56.2325 54.0602 56.2325 50.3303C56.2325 46.6005 59.2884 43.5661 63.0447 43.5661C66.8009 43.5661 69.8568 46.6005 69.8568 50.3303C69.8568 54.0602 66.8009 57.0946 63.0447 57.0946ZM77.6497 48.9665C77.6497 49.0704 77.5651 49.1552 77.4612 49.1552H72.1284C72.009 48.2373 71.7524 47.3622 71.3787 46.5502H77.6498V48.9665H77.6497Z" fill="#999999"/>
    <path d="M63.0447 46.3696C60.8516 46.3696 59.0672 48.1463 59.0672 50.3304C59.0672 52.5143 60.8516 54.291 63.0447 54.291C65.2379 54.291 67.0221 52.5143 67.0221 50.3304C67.0221 48.1463 65.2379 46.3696 63.0447 46.3696ZM63.0447 51.9407C62.1474 51.9407 61.4175 51.2184 61.4175 50.3304C61.4175 49.4424 62.1474 48.72 63.0447 48.72C63.9419 48.72 64.6718 49.4424 64.6718 50.3304C64.6718 51.2184 63.9419 51.9407 63.0447 51.9407Z" fill="#999999"/>
    <path d="M23.9608 46.3696C21.7676 46.3696 19.9833 48.1463 19.9833 50.3304C19.9833 52.5143 21.7676 54.291 23.9608 54.291C26.154 54.291 27.9382 52.5143 27.9382 50.3304C27.9382 48.1463 26.154 46.3696 23.9608 46.3696ZM23.9608 51.9407C23.0635 51.9407 22.3336 51.2184 22.3336 50.3304C22.3336 49.4424 23.0635 48.72 23.9608 48.72C24.858 48.72 25.5879 49.4424 25.5879 50.3304C25.5879 51.2184 24.8579 51.9407 23.9608 51.9407Z" fill="#999999"/>
    <path d="M9.25404 11.708H14.3339C14.983 11.708 15.509 11.1818 15.509 10.5328C15.509 9.88383 14.983 9.35767 14.3339 9.35767H9.25404C8.60488 9.35767 8.07887 9.88383 8.07887 10.5328C8.07887 11.1818 8.60488 11.708 9.25404 11.708Z" fill="#999999"/>
    <path d="M9.25404 16.9297H21.9601C22.6092 16.9297 23.1352 16.4035 23.1352 15.7545C23.1352 15.1055 22.6092 14.5793 21.9601 14.5793H9.25404C8.60488 14.5793 8.07887 15.1055 8.07887 15.7545C8.07887 16.4035 8.60488 16.9297 9.25404 16.9297Z" fill="#999999"/>
    <path d="M9.25404 22.1516H21.9601C22.6092 22.1516 23.1352 21.6254 23.1352 20.9764C23.1352 20.3274 22.6092 19.8013 21.9601 19.8013H9.25404C8.60488 19.8013 8.07887 20.3274 8.07887 20.9764C8.07887 21.6254 8.60488 22.1516 9.25404 22.1516Z" fill="#999999"/>
    <path d="M9.25404 27.3733H21.9601C22.6092 27.3733 23.1352 26.8471 23.1352 26.1981C23.1352 25.5491 22.6092 25.0229 21.9601 25.0229H9.25404C8.60488 25.0229 8.07887 25.5491 8.07887 26.1981C8.07887 26.8471 8.60488 27.3733 9.25404 27.3733Z" fill="#999999"/>
</svg>
