<svg width="81" height="46" viewBox="0 0 81 46" fill="none" xmlns="http://www.w3.org/2000/svg">
<path d="M78.9067 32.2883V24.4899C78.9067 20.6811 75.808 17.5793 71.9994 17.5757L65.2488 17.5683C64.6086 17.5677 64 17.291 63.5788 16.8091L51.2714 2.73144C49.8841 1.10629 47.863 0.174255 45.7263 0.174255H36.3605C35.7133 0.174255 35.1886 0.698943 35.1886 1.34613C35.1886 1.99332 35.7133 2.51801 36.3605 2.51801H45.7263C47.1761 2.51801 48.5475 3.15051 49.498 4.26363L50.1792 5.04285H28.5588C27.8388 5.04285 27.1516 5.35238 26.6736 5.89207C26.5764 6.00176 26.5006 6.12879 26.4503 6.2666L22.0291 18.3536C21.8975 18.713 21.9498 19.1141 22.1692 19.4277C22.3884 19.7413 22.747 19.928 23.1295 19.928H23.13L39.3283 19.9219V32.2574H26.9956C25.4175 29.7488 22.6167 28.076 19.4289 28.076C16.24 28.076 13.4381 29.7502 11.8605 32.2603C11.8411 32.2594 11.8219 32.2574 11.8022 32.2574H4.63969C4.50578 31.8207 4.43703 31.3666 4.43703 30.903V29.9303H7.76672C9.69875 29.9303 11.2705 28.3585 11.2705 26.4266V24.6813C11.2705 22.7493 9.6986 21.1775 7.76672 21.1775H5.25594C5.27938 21.1446 5.30141 21.1108 5.32578 21.0785C6.14406 19.9914 7.48563 19.3541 8.92703 19.3813L16.2234 19.4589C16.2277 19.4591 16.2319 19.4591 16.2361 19.4591C16.7142 19.4591 17.145 19.1683 17.3234 18.7238L23.0622 4.42847C23.995 3.22972 25.4444 2.51816 26.9675 2.51816H31.673C32.3202 2.51816 32.8448 1.99347 32.8448 1.34629C32.8448 0.699099 32.3202 0.174412 31.673 0.174412H26.9675C24.6538 0.174412 22.4558 1.28832 21.0877 3.15441C21.0295 3.23363 15.447 17.1069 15.447 17.1069L8.95953 17.0378C6.77563 17.0002 4.72125 17.9846 3.45328 19.6691C3.1125 20.1218 2.83109 20.6152 2.61688 21.1355C2.26938 21.9796 2.09313 22.8711 2.09313 23.7853V30.9032C2.09313 31.3652 2.13938 31.821 2.22828 32.2678C1.25875 32.3674 0.5 33.1889 0.5 34.1846V37.7061C0.5 38.7688 1.36453 39.6333 2.42703 39.6333H10.925C12.0708 43.2199 15.4492 45.826 19.4288 45.826C23.4084 45.826 26.7869 43.2199 27.9327 39.6333H38.307C38.9542 39.6333 39.4789 39.1086 39.4789 38.4614C39.4789 37.8143 38.9542 37.2896 38.307 37.2896H28.3416C28.3458 37.1771 28.3502 37.0646 28.3502 36.951C28.3502 36.1375 28.2373 35.35 28.0303 34.6011H50.9608C50.7538 35.35 50.6409 36.1375 50.6409 36.951C50.6409 37.0646 50.6453 37.1771 50.6495 37.2896H42.9944C42.3472 37.2896 41.8225 37.8143 41.8225 38.4614C41.8225 39.1086 42.3472 39.6333 42.9944 39.6333H50.907C50.9572 39.6333 51.0063 39.6291 51.0548 39.623C52.1973 43.2149 55.5786 45.826 59.5622 45.826C63.5419 45.826 66.9203 43.2199 68.0659 39.6333H78.5727C79.6353 39.6333 80.4998 38.7688 80.4998 37.7061V34.1846C80.5 33.236 79.8105 32.4471 78.9067 32.2883ZM8.92656 24.6813V26.4266C8.92656 27.0663 8.40609 27.5866 7.76656 27.5866H4.43688V23.785C4.43688 23.6968 4.44016 23.6088 4.445 23.5211H7.76641C8.40625 23.5211 8.92656 24.0416 8.92656 24.6813ZM2.84375 37.2896V34.6011H10.8273C10.6203 35.35 10.5075 36.1375 10.5075 36.951C10.5075 37.0646 10.5119 37.1771 10.5161 37.2896H2.84375ZM19.4288 43.4822C16.2853 43.4822 13.6513 41.2807 13.0045 38.3491C12.9969 38.2678 12.9811 38.1889 12.9577 38.1133C12.8891 37.7358 12.8513 37.3477 12.8513 36.9508C12.8513 33.3494 15.8019 30.4196 19.4288 30.4196C23.0556 30.4196 26.0064 33.3494 26.0064 36.9508C26.0064 40.5522 23.0556 43.4822 19.4288 43.4822ZM76.563 24.4899V24.7496H73.3294C72.1474 24.7496 71.1859 23.788 71.1859 22.6061V19.9185L71.997 19.9194C74.5147 19.9219 76.563 21.9722 76.563 24.4899ZM61.1308 17.5699L41.6719 17.5772V7.3866H52.1734C52.1911 7.3866 52.2084 7.38473 52.2259 7.38394L61.1308 17.5699ZM24.8063 17.5835L28.5355 7.38816C28.5431 7.38707 28.5511 7.38644 28.5588 7.38644H39.3281V17.578L24.8063 17.5835ZM41.6719 32.2572V19.9208L68.8422 19.9158V22.606C68.8422 25.0802 70.8552 27.0932 73.3294 27.0932H76.563V32.2571H67.1734C67.1589 32.2571 67.1447 32.2586 67.1303 32.2593C65.5525 29.7496 62.7509 28.0757 59.5623 28.0757C56.3747 28.0757 53.5738 29.7486 51.9958 32.2571H41.6719V32.2572ZM59.5623 43.4822C55.9355 43.4822 52.9849 40.5524 52.9849 36.951C52.9849 33.3496 55.9355 30.4197 59.5623 30.4197C63.1892 30.4197 66.1398 33.3496 66.1398 36.951C66.1398 40.5522 63.1891 43.4822 59.5623 43.4822ZM78.1563 37.2896H68.4749C68.4791 37.1771 68.4834 37.0646 68.4834 36.951C68.4834 36.1375 68.3706 35.35 68.1636 34.6011H78.1563V37.2896Z" fill="#999999"/>
<path d="M59.5624 33.0763C57.4171 33.0763 55.6716 34.8144 55.6716 36.9508C55.6716 39.0872 57.4169 40.8254 59.5624 40.8254C61.7077 40.8254 63.453 39.0872 63.453 36.9508C63.453 34.8144 61.7076 33.0763 59.5624 33.0763ZM59.5624 38.4814C58.7094 38.4814 58.0154 37.7947 58.0154 36.9507C58.0154 36.1066 58.7093 35.4199 59.5624 35.4199C60.4154 35.4199 61.1093 36.1066 61.1093 36.9507C61.1093 37.7947 60.4152 38.4814 59.5624 38.4814Z" fill="#999999"/>
<path d="M19.4287 33.0763C17.2834 33.0763 15.5381 34.8144 15.5381 36.9508C15.5381 39.0872 17.2834 40.8254 19.4287 40.8254C21.574 40.8254 23.3195 39.0872 23.3195 36.9508C23.3195 34.8144 21.574 33.0763 19.4287 33.0763ZM19.4287 38.4814C18.5757 38.4814 17.8818 37.7947 17.8818 36.9507C17.8818 36.1066 18.5757 35.4199 19.4287 35.4199C20.2818 35.4199 20.9757 36.1066 20.9757 36.9507C20.9757 37.7947 20.2818 38.4814 19.4287 38.4814Z" fill="#999999"/>
<path d="M47.5253 21.7834H45.6925C45.0453 21.7834 44.5206 22.3081 44.5206 22.9553C44.5206 23.6025 45.0453 24.1272 45.6925 24.1272H47.5253C48.1725 24.1272 48.6972 23.6025 48.6972 22.9553C48.6972 22.3081 48.1725 21.7834 47.5253 21.7834Z" fill="#999999"/>
<path d="M25.82 24.1272C26.4671 24.1272 26.9918 23.6025 26.9918 22.9553C26.9918 22.3081 26.4671 21.7834 25.82 21.7834H23.9873C23.3401 21.7834 22.8154 22.3081 22.8154 22.9553C22.8154 23.6025 23.3401 24.1272 23.9873 24.1272H25.82Z" fill="#999999"/>
</svg>
