<svg width="80" height="80" viewBox="0 0 80 80" fill="none" xmlns="http://www.w3.org/2000/svg">
    <path d="M78.4067 49.2884V41.4899C78.4067 37.6812 75.308 34.5793 71.4994 34.5757L64.7488 34.5684C64.1086 34.5678 63.5 34.291 63.0788 33.8092L50.7714 19.7315C49.3841 18.1063 47.363 17.1743 45.2263 17.1743H35.8605C35.2133 17.1743 34.6886 17.699 34.6886 18.3462C34.6886 18.9934 35.2133 19.5181 35.8605 19.5181H45.2263C46.6761 19.5181 48.0475 20.1506 48.998 21.2637L49.6792 22.0429H28.0588C27.3388 22.0429 26.6516 22.3524 26.1736 22.8921C26.0764 23.0018 26.0006 23.1288 25.9503 23.2667L21.5291 35.3537C21.3975 35.7131 21.4498 36.1142 21.6692 36.4278C21.8884 36.7413 22.247 36.9281 22.6295 36.9281H22.63L38.8283 36.922V49.2574H26.4956C24.9175 46.7488 22.1167 45.076 18.9289 45.076C15.74 45.076 12.9381 46.7503 11.3605 49.2604C11.3411 49.2595 11.3219 49.2574 11.3022 49.2574H4.13969C4.00578 48.8207 3.93703 48.3667 3.93703 47.9031V46.9304H7.26672C9.19875 46.9304 10.7705 45.3585 10.7705 43.4267V41.6813C10.7705 39.7493 9.19859 38.1776 7.26672 38.1776H4.75594C4.77938 38.1446 4.80141 38.1109 4.82578 38.0785C5.64406 36.9915 6.98563 36.3542 8.42703 36.3813L15.7234 36.459C15.7277 36.4592 15.7319 36.4592 15.7361 36.4592C16.2142 36.4592 16.645 36.1684 16.8234 35.7238L22.5622 21.4285C23.495 20.2298 24.9444 19.5182 26.4675 19.5182H31.173C31.8202 19.5182 32.3448 18.9935 32.3448 18.3463C32.3448 17.6992 31.8202 17.1745 31.173 17.1745H26.4675C24.1538 17.1745 21.9558 18.2884 20.5877 20.1545C20.5295 20.2337 14.947 34.107 14.947 34.107L8.45953 34.0379C6.27563 34.0003 4.22125 34.9846 2.95328 36.6692C2.6125 37.1218 2.33109 37.6153 2.11688 38.1356C1.76938 38.9796 1.59313 39.8712 1.59313 40.7854V47.9032C1.59313 48.3653 1.63938 48.821 1.72828 49.2679C0.75875 49.3674 0 50.189 0 51.1846V54.7062C0 55.7688 0.864531 56.6334 1.92703 56.6334H10.425C11.5708 60.2199 14.9492 62.826 18.9288 62.826C22.9084 62.826 26.2869 60.2199 27.4327 56.6334H37.807C38.4542 56.6334 38.9789 56.1087 38.9789 55.4615C38.9789 54.8143 38.4542 54.2896 37.807 54.2896H27.8416C27.8458 54.1771 27.8502 54.0646 27.8502 53.951C27.8502 53.1376 27.7373 52.3501 27.5303 51.6012H50.4608C50.2538 52.3501 50.1409 53.1376 50.1409 53.951C50.1409 54.0646 50.1453 54.1771 50.1495 54.2896H42.4944C41.8472 54.2896 41.3225 54.8143 41.3225 55.4615C41.3225 56.1087 41.8472 56.6334 42.4944 56.6334H50.407C50.4572 56.6334 50.5063 56.6292 50.5548 56.6231C51.6973 60.2149 55.0786 62.826 59.0622 62.826C63.0419 62.826 66.4203 60.2199 67.5659 56.6334H78.0727C79.1353 56.6334 79.9999 55.7688 79.9999 54.7062V51.1846C80 50.236 79.3105 49.4471 78.4067 49.2884V49.2884ZM8.42656 41.6813V43.4267C8.42656 44.0663 7.90609 44.5867 7.26656 44.5867H3.93688V40.7851C3.93688 40.6968 3.94016 40.6088 3.945 40.5212H7.26641C7.90625 40.5212 8.42656 41.0417 8.42656 41.6813ZM2.34375 54.2896V51.6012H10.3273C10.1203 52.3501 10.0075 53.1376 10.0075 53.951C10.0075 54.0646 10.0119 54.1771 10.0161 54.2896H2.34375ZM18.9288 60.4823C15.7853 60.4823 13.1513 58.2807 12.5045 55.3492C12.4969 55.2679 12.4811 55.189 12.4577 55.1134C12.3891 54.7359 12.3513 54.3478 12.3513 53.9509C12.3513 50.3495 15.3019 47.4196 18.9288 47.4196C22.5556 47.4196 25.5064 50.3495 25.5064 53.9509C25.5064 57.5523 22.5556 60.4823 18.9288 60.4823ZM76.063 41.4899V41.7496H72.8294C71.6474 41.7496 70.6859 40.7881 70.6859 39.6062V36.9185L71.497 36.9195C74.0147 36.922 76.063 38.9723 76.063 41.4899V41.4899ZM60.6308 34.5699L41.1719 34.5773V24.3867H51.6734C51.6911 24.3867 51.7084 24.3848 51.7259 24.384L60.6308 34.5699ZM24.3063 34.5835L28.0355 24.3882C28.0431 24.3871 28.0511 24.3865 28.0588 24.3865H38.8281V34.5781L24.3063 34.5835ZM41.1719 49.2573V36.9209L68.3422 36.9159V39.606C68.3422 42.0803 70.3552 44.0932 72.8294 44.0932H76.063V49.2571H66.6734C66.6589 49.2571 66.6447 49.2587 66.6303 49.2593C65.0525 46.7496 62.2509 45.0757 59.0623 45.0757C55.8747 45.0757 53.0738 46.7487 51.4958 49.2571H41.1719V49.2573ZM59.0623 60.4823C55.4355 60.4823 52.4849 57.5524 52.4849 53.951C52.4849 50.3496 55.4355 47.4198 59.0623 47.4198C62.6892 47.4198 65.6399 50.3496 65.6399 53.951C65.6399 57.5523 62.6891 60.4823 59.0623 60.4823ZM77.6563 54.2896H67.9749C67.9791 54.1771 67.9834 54.0646 67.9834 53.951C67.9834 53.1376 67.8706 52.3501 67.6636 51.6012H77.6563V54.2896Z" fill="#999999"/>
    <path d="M59.0624 50.0764C56.917 50.0764 55.1716 51.8145 55.1716 53.9509C55.1716 56.0874 56.9169 57.8255 59.0624 57.8255C61.2077 57.8255 62.953 56.0874 62.953 53.9509C62.953 51.8145 61.2075 50.0764 59.0624 50.0764ZM59.0624 55.4816C58.2094 55.4816 57.5153 54.7949 57.5153 53.9508C57.5153 53.1067 58.2092 52.42 59.0624 52.42C59.9153 52.42 60.6092 53.1067 60.6092 53.9508C60.6092 54.7949 59.9152 55.4816 59.0624 55.4816Z" fill="#999999"/>
    <path d="M18.9287 50.0764C16.7834 50.0764 15.0381 51.8145 15.0381 53.9509C15.0381 56.0874 16.7834 57.8255 18.9287 57.8255C21.074 57.8255 22.8195 56.0874 22.8195 53.9509C22.8195 51.8145 21.074 50.0764 18.9287 50.0764V50.0764ZM18.9287 55.4816C18.0758 55.4816 17.3819 54.7949 17.3819 53.9508C17.3819 53.1067 18.0758 52.42 18.9287 52.42C19.7819 52.42 20.4758 53.1067 20.4758 53.9508C20.4758 54.7949 19.7819 55.4816 18.9287 55.4816V55.4816Z" fill="#999999"/>
    <path d="M47.0253 38.7834H45.1925C44.5453 38.7834 44.0206 39.3081 44.0206 39.9553C44.0206 40.6025 44.5453 41.1272 45.1925 41.1272H47.0253C47.6725 41.1272 48.1972 40.6025 48.1972 39.9553C48.1972 39.3081 47.6725 38.7834 47.0253 38.7834Z" fill="#999999"/>
    <path d="M25.32 41.1272C25.9672 41.1272 26.4919 40.6025 26.4919 39.9553C26.4919 39.3081 25.9672 38.7834 25.32 38.7834H23.4873C22.8401 38.7834 22.3155 39.3081 22.3155 39.9553C22.3155 40.6025 22.8401 41.1272 23.4873 41.1272H25.32Z" fill="#999999"/>
</svg>
