<svg width="80" height="58" viewBox="0 0 80 58" fill="none" xmlns="http://www.w3.org/2000/svg">
    <path d="M65.9942 28.9757L69.7302 25.8126C71.2403 24.5338 72.0666 22.6663 71.9969 20.6887C71.9273 18.7112 70.9717 16.9063 69.3755 15.7371L64.0078 11.8054C62.4858 10.6902 60.5172 10.5898 58.9298 11.4412L57.9331 8.47647C57.8484 8.2246 57.6806 8.00882 57.4572 7.86491L52.3722 4.58757C52.0778 2.25085 50.0795 0.437256 47.6642 0.437256C45.0469 0.437256 42.9175 2.56663 42.9175 5.18398C42.9175 7.80132 45.0469 9.93069 47.6642 9.93069C48.1045 9.93069 48.5305 9.86913 48.9353 9.75648L52.0516 11.9519L52.5475 13.4269C50.5631 12.5694 48.4613 12.1046 46.2997 12.0458C45.6583 12.0296 45.1141 12.5385 45.0966 13.1855C45.0791 13.8326 45.5892 14.3712 46.2362 14.3888C48.1067 14.4396 49.9253 14.8432 51.6417 15.5885L55.1762 17.1234C55.6145 17.3138 56.1245 17.2187 56.4653 16.8834L59.4684 13.9258C60.3255 13.0818 61.6525 12.9851 62.6228 13.6958L66.1559 16.2838L62.2091 17.2855C60.2911 17.7724 59.0758 19.4269 59.1852 21.4026C59.2944 23.3782 60.6845 24.8887 62.6442 25.161L66.2759 25.666L57.2427 33.3143C55.8758 34.4716 54.7463 35.8463 53.8872 37.3662L52.1492 34.489C49.3105 29.7896 44.8803 26.2399 39.6753 24.4941L35.9742 23.2529C35.3608 23.0474 34.6964 23.3777 34.4906 23.9913C34.2848 24.6049 34.6153 25.2691 35.2291 25.4751L38.93 26.7163C43.6089 28.2857 47.5913 31.4765 50.143 35.7009L52.7267 39.9782C52.2233 41.4865 51.9584 43.0824 51.9584 44.7123C51.9584 45.9273 50.97 46.9157 49.7548 46.9157H46.8006L49.2255 44.4908C49.6831 44.0332 49.6831 43.2912 49.2255 42.8337C48.7678 42.376 48.0259 42.376 47.5681 42.8337L43.5355 46.8663C43.5195 46.8823 43.5056 46.8991 43.4908 46.9157H40.4878L42.9127 44.4908C43.3703 44.0332 43.3703 43.2912 42.9127 42.8337C42.455 42.376 41.7131 42.376 41.2553 42.8337L37.2225 46.8663C37.2066 46.8823 37.1927 46.8991 37.178 46.9157H32.1987C31.8056 46.9157 31.6547 46.6312 31.608 46.5088C31.5613 46.3865 31.4842 46.0737 31.7773 45.8116L36.1805 41.8769C36.8117 41.313 37.1738 40.5041 37.1738 39.6576V34.4015C37.1738 33.3284 36.5928 32.3346 35.6578 31.8082L11.8592 18.4071C14.6547 16.5798 18.2564 16.2551 21.3523 17.6254L29.0764 21.044C30.9866 21.8893 33.2422 21.3498 34.5634 19.7329C36.328 17.5729 38.6622 15.9726 41.3139 15.1052C41.9289 14.904 42.2645 14.2423 42.0633 13.6269C41.8622 13.0119 41.2006 12.6762 40.5852 12.8776C38.2545 13.6401 36.1356 14.891 34.3545 16.5416C33.4084 15.0723 32.0209 13.9509 30.3538 13.3298L16.6063 8.20835C16.1884 8.05272 15.7348 8.06913 15.3294 8.25444C14.9236 8.43991 14.6145 8.77226 14.4592 9.18976L14.2853 9.65632C13.6556 11.3469 13.6852 13.1688 14.343 14.808C12.5281 15.259 10.8083 16.1199 9.3425 17.3691C8.97062 17.6863 8.77672 18.1663 8.82391 18.6529C8.87109 19.1394 9.15344 19.5732 9.57953 19.813L22.7339 27.2205L20.8625 30.5076C18.8634 29.5015 16.6295 28.9712 14.3748 28.9712C12.9345 28.9712 11.5122 29.1827 10.1472 29.5998C9.52812 29.7888 9.17984 30.444 9.36891 31.0629C9.55812 31.6819 10.2142 32.0301 10.832 31.841C11.9748 31.4918 13.1669 31.3148 14.3748 31.3148C16.2241 31.3148 18.0552 31.7405 19.7009 32.5479L18.0434 35.4591C16.9016 34.9285 15.6428 34.6476 14.3748 34.6476C9.59734 34.6476 5.71063 38.5143 5.71063 43.2671C5.71063 48.0199 9.59734 51.8866 14.3748 51.8866C17.4333 51.8866 20.2656 50.276 21.8248 47.6684L25.4045 48.046C23.5056 52.3693 19.177 55.2193 14.3748 55.2193C7.74078 55.2191 2.34375 49.8574 2.34375 43.2669C2.34375 39.4973 4.16656 35.9049 7.21969 33.6573C7.74094 33.2735 7.85234 32.5399 7.46875 32.0188C7.08484 31.4976 6.35141 31.3862 5.83031 31.7698C2.17953 34.4573 0 38.7552 0 43.2669C0 51.1498 6.44859 57.5629 14.3747 57.5629C20.3595 57.5629 25.7291 53.8521 27.8292 48.3016L30.1847 48.5501C30.2139 48.5532 30.2427 48.5537 30.2714 48.5546C30.7958 49.001 31.4703 49.2598 32.1989 49.2598H49.755C50.6773 49.2598 51.5358 48.9829 52.2534 48.5091C53.1661 50.8023 54.6723 52.8524 56.6228 54.4126C59.1627 56.444 62.3598 57.5629 65.6253 57.5629C73.5514 57.5629 80 51.1498 80 43.2669C80 35.5068 73.7506 29.171 65.9942 28.9757ZM45.2614 5.18413C45.2614 3.85913 46.3394 2.78116 47.6644 2.78116C48.9894 2.78116 50.0673 3.85913 50.0673 5.18413C50.0673 6.50913 48.9894 7.5871 47.6644 7.5871C46.3394 7.5871 45.2614 6.50913 45.2614 5.18413ZM55.4217 14.6216L54.1511 10.8418C54.0716 10.6055 53.9191 10.4007 53.7152 10.2573L51.1225 8.43069C51.4795 8.05069 51.7744 7.6121 51.9917 7.13101L55.8422 9.61257L57.0027 13.0648L55.4217 14.6216ZM16.4227 10.6412L29.5355 15.5262C30.9102 16.0384 32.018 17.0279 32.6802 18.3268C32.017 19.0682 30.9414 19.3065 30.0248 18.9009L22.3008 15.4823C20.535 14.7007 18.6358 14.3665 16.7628 14.4544C16.1234 13.2791 16.0006 11.9119 16.4227 10.6412ZM34.6189 40.1294L30.2155 44.0643C29.6148 44.601 29.2738 45.3298 29.2266 46.0921L15.4544 44.6394V43.1241L34.3597 38.3846C34.5159 38.3638 34.673 38.3516 34.8298 38.348V39.6579C34.83 39.8377 34.7531 40.0096 34.6189 40.1294ZM34.83 34.4018V36.006C34.5414 36.0102 34.2525 36.0315 33.9658 36.0734C33.927 36.079 33.8886 36.0866 33.8505 36.0962L28.1775 37.5183L31.2956 32.0418L34.5081 33.8509C34.7066 33.9627 34.83 34.1738 34.83 34.4018ZM29.2533 30.8918L25.0314 38.3071L18.1344 40.0362L24.7759 28.3705L29.2533 30.8918ZM14.3747 49.5426C10.8895 49.5426 8.05422 46.7273 8.05422 43.2668C8.05422 39.8063 10.8895 36.991 14.3747 36.991C15.237 36.991 16.0923 37.1693 16.878 37.5054L14.9883 40.8246L13.9977 41.073C13.4764 41.2037 13.1108 41.6723 13.1108 42.2098V45.6941C13.1108 46.2937 13.5633 46.7966 14.1597 46.8594L19.1423 47.3849C17.9544 48.7387 16.2216 49.5426 14.3747 49.5426ZM63.1588 31.3765L67.2403 43.5174C67.3258 43.7713 67.3066 44.043 67.1862 44.2826C67.0661 44.5221 66.8597 44.6998 66.605 44.7832C66.0867 44.9524 65.5236 44.6702 65.3497 44.153L61.5208 32.7633L63.1588 31.3765ZM61.1047 38.8812L63.1281 44.9001C63.5958 46.2912 64.9048 47.1757 66.3017 47.1757C66.6441 47.1757 66.9919 47.1226 67.3336 47.0107C68.1866 46.7316 68.8783 46.1362 69.2808 45.334C69.6834 44.5318 69.7477 43.6215 69.4617 42.7705L67.627 37.3132C70.1567 38.1513 71.9455 40.5293 71.9455 43.2669C71.9455 46.7274 69.1102 49.5427 65.625 49.5427C62.1398 49.5427 59.3047 46.7274 59.3047 43.2669C59.305 41.5965 59.9519 40.0454 61.1047 38.8812ZM61.5253 21.2735C61.4884 20.608 61.8003 19.8077 62.7855 19.5576L68.5292 18.0998C69.2162 18.8159 69.6191 19.7576 69.6547 20.7713C69.6922 21.8351 69.3198 22.8477 68.6225 23.6263L62.9667 22.8399C61.96 22.6999 61.562 21.939 61.5253 21.2735ZM65.6253 55.2191C62.8502 55.2191 60.2434 54.3074 58.0867 52.5824C56.0923 50.9873 54.652 48.783 53.9984 46.3438C54.1939 45.8371 54.3022 45.2874 54.3022 44.7127C54.3022 43.1976 54.5733 41.7171 55.0867 40.3323C55.1037 40.2944 55.1184 40.2555 55.1312 40.2162C55.8797 38.2569 57.1147 36.494 58.7572 35.1035L59.5959 34.3933L60.2959 36.4755C58.205 38.1027 56.9613 40.6216 56.9613 43.2671C56.9613 48.0199 60.848 51.8866 65.6253 51.8866C70.4028 51.8866 74.2895 48.0199 74.2895 43.2671C74.2895 38.9474 71.0527 35.279 66.7558 34.7212L65.6108 31.3154C65.6156 31.3154 65.6203 31.3151 65.6252 31.3151C72.2591 31.3151 77.6561 36.6768 77.6561 43.2673C77.6561 49.8577 72.2592 55.2191 65.6253 55.2191Z" fill="#999999"/>
</svg>
