<svg width="80" height="80" viewBox="0 0 80 80" fill="none" xmlns="http://www.w3.org/2000/svg">
    <g clip-path="url(#clip0_802:3851)">
        <path d="M58.3928 46.1013H59.5398C60.1889 46.1013 60.7149 45.5751 60.7149 44.9261C60.7149 44.2771 60.1889 43.751 59.5398 43.751H58.3928C57.7436 43.751 57.2176 44.2771 57.2176 44.9261C57.2176 45.5751 57.7436 46.1013 58.3928 46.1013Z" fill="#999999"/>
        <path d="M79.9303 40.2642C79.9303 37.8634 78.1376 35.8 75.76 35.4647L67.9281 34.3603L62.0358 28.2115C63.5582 27.6401 64.6447 26.17 64.6447 24.4505V14.5712C64.6447 12.3567 62.8431 10.5551 60.6286 10.5551H9.61128C8.96211 10.5551 8.43611 11.0812 8.43611 11.7303C8.43611 12.3793 8.96211 12.9054 9.61128 12.9054H60.6286C61.5471 12.9054 62.2943 13.6527 62.2943 14.5712V16.0741H53.3268C52.6776 16.0741 52.1516 16.6003 52.1516 17.2493C52.1516 17.8983 52.6776 18.4245 53.3268 18.4245H62.2943V20.853H53.3268C52.6776 20.853 52.1516 21.3791 52.1516 22.0281C52.1516 22.6771 52.6776 23.2033 53.3268 23.2033H62.2943V24.4504C62.2943 25.3689 61.5471 26.1161 60.6286 26.1161H54.3352C53.1074 26.1161 52.1085 27.115 52.1085 28.3428V54.1997H46.8424C46.1932 54.1997 45.6672 54.7259 45.6672 55.3749C45.6672 56.0239 46.1932 56.5501 46.8424 56.5501H54.7109C54.3374 57.362 54.0806 58.2371 53.9612 59.155H33.0444C32.925 58.2371 32.6683 57.362 32.2946 56.5501H42.1415C42.7907 56.5501 43.3167 56.0239 43.3167 55.3749C43.3167 54.7259 42.7907 54.1997 42.1415 54.1997H30.7351C29.058 52.3674 26.6421 51.2156 23.9608 51.2156C21.2796 51.2156 18.8636 52.3674 17.1865 54.1997H2.35033V12.9053H4.91062C5.55978 12.9053 6.08578 12.3791 6.08578 11.7301C6.08578 11.0811 5.55978 10.5549 4.91062 10.5549H2.2267C0.99889 10.5549 0 11.5538 0 12.7818L0.00313377 59.0676C0.00313377 60.4118 1.09682 61.5055 2.44105 61.5055H14.8774C15.459 65.9779 19.3094 69.4449 23.961 69.4449C28.6126 69.4449 32.4629 65.9779 33.0445 61.5055H53.9612C54.5428 65.9779 58.3933 69.4449 63.0449 69.4449C67.6965 69.4449 71.5468 65.9779 72.1284 61.5055H77.4613C78.8613 61.5055 80.0002 60.3665 80.0002 58.9665L79.9303 40.2642ZM77.5799 40.2695L77.5962 43.8389H74.4267C74.0378 43.8389 73.7215 43.5225 73.7215 43.1338V37.551L75.4317 37.7921C76.6564 37.9646 77.5799 39.0274 77.5799 40.2695V40.2695ZM59.06 28.4665C59.1023 28.5343 59.152 28.599 59.2095 28.659L66.1345 35.8857C66.1186 36.1592 66.1049 36.5334 66.093 37.0659C66.0691 38.1371 65.1784 39.0088 64.1076 39.0088H54.4587V28.4665H59.06ZM54.4588 54.1999V41.3593H64.1077C66.4461 41.3593 68.3908 39.4568 68.4428 37.1185C68.4453 37.006 68.448 36.9032 68.4506 36.8078L71.3713 37.2196V43.1338C71.3713 44.8185 72.742 46.1892 74.4269 46.1892H77.6072L77.644 54.1999H69.8193C68.1423 52.3676 65.7263 51.2158 63.045 51.2158C60.3636 51.2158 57.9478 52.3676 56.2706 54.1999H54.4588ZM2.35331 59.0676V56.5502H15.6269C15.2533 57.3622 14.9965 58.2373 14.8771 59.1552H2.44074C2.39279 59.1552 2.35331 59.1158 2.35331 59.0676V59.0676ZM23.9608 67.0946C20.2047 67.0946 17.1488 64.0601 17.1488 60.3303C17.1488 56.6005 20.2047 53.5661 23.9608 53.5661C27.7169 53.5661 30.7728 56.6005 30.7728 60.3303C30.7728 64.0601 27.7169 67.0946 23.9608 67.0946ZM63.0447 67.0946C59.2884 67.0946 56.2325 64.0601 56.2325 60.3303C56.2325 56.6005 59.2884 53.5661 63.0447 53.5661C66.8009 53.5661 69.8568 56.6005 69.8568 60.3303C69.8568 64.0601 66.8009 67.0946 63.0447 67.0946ZM77.6497 58.9665C77.6497 59.0704 77.5651 59.1552 77.4612 59.1552H72.1284C72.009 58.2373 71.7524 57.3622 71.3787 56.5502H77.6498V58.9665H77.6497Z" fill="#999999"/>
        <path d="M63.0447 56.3696C60.8516 56.3696 59.0672 58.1463 59.0672 60.3304C59.0672 62.5143 60.8516 64.291 63.0447 64.291C65.2379 64.291 67.0221 62.5143 67.0221 60.3304C67.0221 58.1463 65.2379 56.3696 63.0447 56.3696ZM63.0447 61.9407C62.1474 61.9407 61.4175 61.2184 61.4175 60.3304C61.4175 59.4424 62.1474 58.72 63.0447 58.72C63.9419 58.72 64.6718 59.4424 64.6718 60.3304C64.6718 61.2184 63.9419 61.9407 63.0447 61.9407Z" fill="#999999"/>
        <path d="M23.9608 56.3696C21.7676 56.3696 19.9833 58.1463 19.9833 60.3304C19.9833 62.5143 21.7676 64.291 23.9608 64.291C26.154 64.291 27.9382 62.5143 27.9382 60.3304C27.9382 58.1463 26.154 56.3696 23.9608 56.3696V56.3696ZM23.9608 61.9407C23.0635 61.9407 22.3336 61.2184 22.3336 60.3304C22.3336 59.4424 23.0635 58.72 23.9608 58.72C24.858 58.72 25.5879 59.4424 25.5879 60.3304C25.5879 61.2184 24.8579 61.9407 23.9608 61.9407V61.9407Z" fill="#999999"/>
        <path d="M9.25404 21.708H14.3339C14.983 21.708 15.509 21.1818 15.509 20.5328C15.509 19.8838 14.983 19.3577 14.3339 19.3577H9.25404C8.60488 19.3577 8.07887 19.8838 8.07887 20.5328C8.07887 21.1818 8.60488 21.708 9.25404 21.708Z" fill="#999999"/>
        <path d="M9.25404 26.9297H21.9601C22.6092 26.9297 23.1352 26.4035 23.1352 25.7545C23.1352 25.1055 22.6092 24.5793 21.9601 24.5793H9.25404C8.60488 24.5793 8.07887 25.1055 8.07887 25.7545C8.07887 26.4035 8.60488 26.9297 9.25404 26.9297V26.9297Z" fill="#999999"/>
        <path d="M9.25404 32.1516H21.9601C22.6092 32.1516 23.1352 31.6254 23.1352 30.9764C23.1352 30.3274 22.6092 29.8013 21.9601 29.8013H9.25404C8.60488 29.8013 8.07887 30.3274 8.07887 30.9764C8.07887 31.6254 8.60488 32.1516 9.25404 32.1516V32.1516Z" fill="#999999"/>
        <path d="M9.25404 37.3733H21.9601C22.6092 37.3733 23.1352 36.8471 23.1352 36.1981C23.1352 35.5491 22.6092 35.0229 21.9601 35.0229H9.25404C8.60488 35.0229 8.07887 35.5491 8.07887 36.1981C8.07887 36.8471 8.60488 37.3733 9.25404 37.3733V37.3733Z" fill="#999999"/>
    </g>
    <defs>
        <clipPath id="clip0_802:3851">
            <rect width="80" height="80" fill="white"/>
        </clipPath>
    </defs>
</svg>
