<svg width="80" height="80" viewBox="0 0 80 80" fill="none" xmlns="http://www.w3.org/2000/svg">
    <g clip-path="url(#clip0_802:3844)">
        <path d="M65.9942 39.9757L69.7302 36.8126C71.2403 35.5338 72.0666 33.6663 71.9969 31.6887C71.9273 29.7112 70.9717 27.9063 69.3755 26.7371L64.0078 22.8054C62.4858 21.6902 60.5172 21.5898 58.9298 22.4412L57.9331 19.4765C57.8484 19.2246 57.6806 19.0088 57.4572 18.8649L52.3722 15.5876C52.0778 13.2509 50.0795 11.4373 47.6642 11.4373C45.0469 11.4373 42.9175 13.5666 42.9175 16.184C42.9175 18.8013 45.0469 20.9307 47.6642 20.9307C48.1045 20.9307 48.5305 20.8691 48.9353 20.7565L52.0516 22.9519L52.5475 24.4269C50.5631 23.5694 48.4612 23.1046 46.2997 23.0458C45.6583 23.0296 45.1141 23.5385 45.0966 24.1855C45.0791 24.8326 45.5892 25.3712 46.2362 25.3888C48.1067 25.4396 49.9253 25.8432 51.6417 26.5885L55.1762 28.1233C55.6145 28.3138 56.1245 28.2187 56.4653 27.8834L59.4684 24.9258C60.3255 24.0818 61.6525 23.9851 62.6228 24.6958L66.1559 27.2838L62.2091 28.2855C60.2911 28.7724 59.0758 30.4269 59.1852 32.4026C59.2944 34.3782 60.6845 35.8887 62.6442 36.161L66.2759 36.666L57.2427 44.3143C55.8758 45.4716 54.7462 46.8463 53.8872 48.3662L52.1492 45.489C49.3105 40.7896 44.8803 37.2399 39.6753 35.4941L35.9742 34.2529C35.3608 34.0474 34.6964 34.3777 34.4906 34.9913C34.2848 35.6049 34.6153 36.2691 35.2291 36.4751L38.93 37.7163C43.6089 39.2857 47.5913 42.4765 50.143 46.7009L52.7267 50.9782C52.2233 52.4865 51.9584 54.0824 51.9584 55.7123C51.9584 56.9273 50.97 57.9157 49.7548 57.9157H46.8006L49.2255 55.4908C49.6831 55.0332 49.6831 54.2912 49.2255 53.8337C48.7678 53.376 48.0259 53.376 47.5681 53.8337L43.5355 57.8663C43.5195 57.8823 43.5056 57.8991 43.4908 57.9157H40.4878L42.9127 55.4908C43.3703 55.0332 43.3703 54.2912 42.9127 53.8337C42.455 53.376 41.7131 53.376 41.2553 53.8337L37.2225 57.8663C37.2066 57.8823 37.1927 57.8991 37.178 57.9157H32.1988C31.8056 57.9157 31.6547 57.6312 31.608 57.5088C31.5613 57.3865 31.4842 57.0737 31.7773 56.8116L36.1805 52.8769C36.8117 52.313 37.1738 51.5041 37.1738 50.6576V45.4015C37.1738 44.3283 36.5928 43.3346 35.6578 42.8082L11.8592 29.4071C14.6547 27.5798 18.2564 27.2551 21.3523 28.6254L29.0764 32.044C30.9866 32.8893 33.2422 32.3498 34.5634 30.7329C36.328 28.5729 38.6622 26.9726 41.3139 26.1052C41.9289 25.904 42.2645 25.2423 42.0633 24.6269C41.8622 24.0119 41.2006 23.6762 40.5852 23.8776C38.2545 24.6401 36.1356 25.891 34.3545 27.5416C33.4084 26.0723 32.0209 24.9509 30.3538 24.3298L16.6062 19.2083C16.1884 19.0527 15.7348 19.0691 15.3294 19.2544C14.9236 19.4399 14.6145 19.7723 14.4592 20.1898L14.2853 20.6563C13.6556 22.3469 13.6852 24.1688 14.343 25.808C12.5281 26.259 10.8083 27.1199 9.3425 28.3691C8.97062 28.6863 8.77672 29.1663 8.82391 29.6529C8.87109 30.1394 9.15344 30.5732 9.57953 30.813L22.7339 38.2205L20.8625 41.5076C18.8634 40.5015 16.6295 39.9712 14.3748 39.9712C12.9345 39.9712 11.5122 40.1827 10.1472 40.5998C9.52813 40.7888 9.17984 41.444 9.36891 42.0629C9.55812 42.6819 10.2142 43.0301 10.832 42.841C11.9748 42.4918 13.1669 42.3148 14.3748 42.3148C16.2241 42.3148 18.0552 42.7405 19.7009 43.5479L18.0434 46.4591C16.9016 45.9285 15.6428 45.6476 14.3748 45.6476C9.59734 45.6476 5.71063 49.5143 5.71063 54.2671C5.71063 59.0199 9.59734 62.8866 14.3748 62.8866C17.4333 62.8866 20.2656 61.276 21.8248 58.6683L25.4045 59.046C23.5056 63.3693 19.177 66.2193 14.3748 66.2193C7.74078 66.2191 2.34375 60.8574 2.34375 54.2669C2.34375 50.4973 4.16656 46.9049 7.21969 44.6573C7.74094 44.2735 7.85234 43.5399 7.46875 43.0188C7.08484 42.4976 6.35141 42.3862 5.83031 42.7698C2.17953 45.4573 0 49.7552 0 54.2669C0 62.1498 6.44859 68.5629 14.3747 68.5629C20.3595 68.5629 25.7291 64.8521 27.8292 59.3016L30.1847 59.5501C30.2139 59.5532 30.2427 59.5537 30.2714 59.5546C30.7958 60.001 31.4703 60.2598 32.1989 60.2598H49.755C50.6773 60.2598 51.5358 59.9829 52.2534 59.5091C53.1661 61.8023 54.6723 63.8524 56.6228 65.4126C59.1627 67.444 62.3598 68.5629 65.6253 68.5629C73.5514 68.5629 80 62.1498 80 54.2669C80 46.5068 73.7506 40.171 65.9942 39.9757V39.9757ZM45.2614 16.1841C45.2614 14.8591 46.3394 13.7812 47.6644 13.7812C48.9894 13.7812 50.0673 14.8591 50.0673 16.1841C50.0673 17.5091 48.9894 18.5871 47.6644 18.5871C46.3394 18.5871 45.2614 17.5091 45.2614 16.1841ZM55.4217 25.6216L54.1511 21.8418C54.0716 21.6055 53.9191 21.4007 53.7152 21.2573L51.1225 19.4307C51.4795 19.0507 51.7744 18.6121 51.9917 18.131L55.8422 20.6126L57.0027 24.0648L55.4217 25.6216ZM16.4227 21.6412L29.5355 26.5262C30.9102 27.0383 32.018 28.0279 32.6802 29.3268C32.017 30.0682 30.9414 30.3065 30.0248 29.9009L22.3008 26.4823C20.535 25.7007 18.6358 25.3665 16.7628 25.4544C16.1234 24.2791 16.0006 22.9119 16.4227 21.6412V21.6412ZM34.6189 51.1294L30.2155 55.0643C29.6148 55.601 29.2738 56.3298 29.2266 57.0921L15.4544 55.6394V54.1241L34.3597 49.3846C34.5159 49.3638 34.673 49.3516 34.8298 49.348V50.6579C34.83 50.8377 34.7531 51.0096 34.6189 51.1294ZM34.83 45.4018V47.006C34.5414 47.0102 34.2525 47.0315 33.9658 47.0734C33.927 47.079 33.8886 47.0866 33.8505 47.0962L28.1775 48.5183L31.2956 43.0418L34.5081 44.8509C34.7066 44.9627 34.83 45.1738 34.83 45.4018V45.4018ZM29.2533 41.8918L25.0314 49.3071L18.1344 51.0362L24.7759 39.3705L29.2533 41.8918ZM14.3747 60.5426C10.8895 60.5426 8.05422 57.7273 8.05422 54.2668C8.05422 50.8063 10.8895 47.991 14.3747 47.991C15.237 47.991 16.0923 48.1693 16.878 48.5054L14.9883 51.8246L13.9977 52.073C13.4764 52.2037 13.1108 52.6723 13.1108 53.2098V56.6941C13.1108 57.2937 13.5633 57.7966 14.1597 57.8594L19.1423 58.3849C17.9544 59.7387 16.2216 60.5426 14.3747 60.5426V60.5426ZM63.1588 42.3765L67.2403 54.5174C67.3258 54.7713 67.3066 55.043 67.1863 55.2826C67.0661 55.5221 66.8597 55.6998 66.605 55.7832C66.0867 55.9524 65.5236 55.6702 65.3497 55.153L61.5208 43.7633L63.1588 42.3765ZM61.1047 49.8812L63.1281 55.9001C63.5958 57.2912 64.9048 58.1757 66.3017 58.1757C66.6441 58.1757 66.9919 58.1226 67.3336 58.0107C68.1866 57.7316 68.8783 57.1362 69.2808 56.334C69.6834 55.5318 69.7477 54.6215 69.4617 53.7705L67.627 48.3132C70.1567 49.1513 71.9455 51.5293 71.9455 54.2669C71.9455 57.7274 69.1102 60.5427 65.625 60.5427C62.1398 60.5427 59.3047 57.7274 59.3047 54.2669C59.305 52.5965 59.9519 51.0454 61.1047 49.8812V49.8812ZM61.5253 32.2735C61.4884 31.608 61.8003 30.8077 62.7855 30.5576L68.5292 29.0998C69.2163 29.8159 69.6191 30.7576 69.6547 31.7713C69.6922 32.8351 69.3198 33.8477 68.6225 34.6263L62.9667 33.8399C61.96 33.6999 61.562 32.939 61.5253 32.2735V32.2735ZM65.6253 66.2191C62.8502 66.2191 60.2434 65.3074 58.0867 63.5824C56.0923 61.9873 54.652 59.783 53.9984 57.3438C54.1939 56.8371 54.3022 56.2874 54.3022 55.7127C54.3022 54.1976 54.5733 52.7171 55.0867 51.3323C55.1037 51.2944 55.1184 51.2555 55.1312 51.2162C55.8797 49.2569 57.1147 47.494 58.7572 46.1035L59.5959 45.3933L60.2959 47.4755C58.205 49.1027 56.9613 51.6216 56.9613 54.2671C56.9613 59.0199 60.848 62.8866 65.6253 62.8866C70.4028 62.8866 74.2895 59.0199 74.2895 54.2671C74.2895 49.9474 71.0527 46.279 66.7558 45.7212L65.6108 42.3154C65.6156 42.3154 65.6203 42.3151 65.6252 42.3151C72.2591 42.3151 77.6561 47.6768 77.6561 54.2673C77.6561 60.8577 72.2592 66.2191 65.6253 66.2191V66.2191Z" fill="#999999"/>
    </g>
    <defs>
        <clipPath id="clip0_802:3844">
            <rect width="80" height="80" fill="white"/>
        </clipPath>
    </defs>
</svg>
