<svg width="80" height="80" viewBox="0 0 80 80" fill="none" xmlns="http://www.w3.org/2000/svg">
    <g clip-path="url(#clip0_2919:7502)">
        <path d="M76.9722 30.0388L70.9239 23.7513C68.8911 21.6381 66.0434 20.426 63.1111 20.426H58.9364V13.6915L61.0355 13.5218C61.6806 13.4696 62.1612 12.9045 62.1091 12.2593C62.0569 11.6143 61.4919 11.1338 60.8466 11.1857L16.2153 14.7938C15.5703 14.846 15.0895 15.4112 15.1417 16.0563C15.1912 16.6693 15.7041 17.1338 16.3084 17.1338C16.3402 17.1338 16.372 17.1326 16.4042 17.1299L17.9387 17.0059V20.4262H12.3508C5.54062 20.4262 0 25.9668 0 32.777V57.8476C0 59.4623 1.31359 60.7759 2.92828 60.7759H9.79172C10.3725 65.3049 14.2686 68.8182 18.9767 68.8182C23.6848 68.8182 27.5808 65.3049 28.1617 60.7759H37.6092C38.2564 60.7759 38.7811 60.2512 38.7811 59.604C38.7811 58.9568 38.2564 58.4321 37.6092 58.4321H28.1617C28.0406 57.4884 27.7762 56.5893 27.3898 55.7563H54.8939C54.5075 56.5892 54.243 57.4884 54.122 58.4321H42.2969C41.6495 58.4321 41.125 58.9568 41.125 59.604C41.125 60.2512 41.6495 60.7759 42.2969 60.7759H54.122C54.7028 65.3049 58.5989 68.8182 63.307 68.8182C68.0152 68.8182 71.9113 65.3049 72.492 60.7759H77.0719C78.6866 60.7759 80.0002 59.4623 80.0002 57.8476V37.5545C80 34.7379 78.9248 32.069 76.9722 30.0388V30.0388ZM77.6562 48.4592H74.267C74.0928 48.4592 73.9509 48.3174 73.9509 48.1431V44.4788C73.9509 44.3045 74.0927 44.1628 74.267 44.1628H77.6562V48.4592ZM77.6428 37.0903H60.5667C60.5511 37.0903 60.5384 37.0776 60.5384 37.062V30.9492C60.5384 30.9335 60.5511 30.9209 60.5667 30.9209H74.5683L75.2828 31.6637C76.7056 33.1428 77.5331 35.0549 77.6428 37.0903V37.0903ZM2.34375 57.8476V55.7563H10.5636C10.1772 56.5892 9.91281 57.4884 9.79172 58.4321H2.92828C2.60594 58.4321 2.34375 58.1699 2.34375 57.8476ZM18.9767 66.4743C15.1617 66.4743 12.058 63.3923 12.058 59.6038C12.058 55.8154 15.1617 52.7334 18.9767 52.7334C22.7917 52.7334 25.8955 55.8154 25.8955 59.6038C25.8955 63.3923 22.7917 66.4743 18.9767 66.4743ZM25.8308 53.4126C24.1352 51.5567 21.6903 50.3898 18.9766 50.3898C16.2628 50.3898 13.8181 51.5568 12.1223 53.4126H2.34375V32.777C2.34375 27.259 6.83281 22.7699 12.3508 22.7699H35.3125C35.9597 22.7699 36.4844 22.2453 36.4844 21.5981C36.4844 20.9509 35.9597 20.4262 35.3125 20.4262H20.2825V16.8163L56.5927 13.8809V20.4262H40C39.3528 20.4262 38.8281 20.9509 38.8281 21.5981C38.8281 22.2453 39.3528 22.7699 40 22.7699H63.1109C65.4094 22.7699 67.6413 23.7199 69.2345 25.3763L72.3136 28.5771H60.5666C59.2586 28.5771 58.1945 29.6412 58.1945 30.9492V37.062C58.1945 38.3699 59.2586 39.434 60.5666 39.434H77.6562V41.8192H74.267C72.8005 41.8192 71.6072 43.0124 71.6072 44.479V48.1432C71.6072 49.6098 72.8005 50.8031 74.267 50.8031H77.6562V53.4128H70.2391C70.2139 53.4128 70.1892 53.4149 70.1645 53.4165C68.4688 51.5584 66.0225 50.3898 63.307 50.3898C60.5933 50.3898 58.1484 51.5568 56.4528 53.4126H25.8308ZM63.307 66.4743C59.492 66.4743 56.3883 63.3923 56.3883 59.6038C56.3883 55.8154 59.492 52.7334 63.307 52.7334C67.122 52.7334 70.2258 55.8154 70.2258 59.6038C70.2258 63.3923 67.122 66.4743 63.307 66.4743V66.4743ZM77.6562 57.8476C77.6562 58.1699 77.3939 58.4321 77.0717 58.4321H72.4919C72.3708 57.4884 72.1064 56.5893 71.72 55.7563H77.6562V57.8476Z" fill="#3291FF"/>
        <path d="M53.0908 28.5774H43.435C42.1612 28.5774 41.125 29.6136 41.125 30.8875V37.1241C41.125 38.3979 42.1612 39.4343 43.435 39.4343H53.0908C54.3645 39.4343 55.4008 38.3979 55.4008 37.1241V30.8875C55.4008 29.6136 54.3645 28.5774 53.0908 28.5774V28.5774ZM53.057 37.0905H43.4688V30.9211H53.057V37.0905Z" fill="#3291FF"/>
        <path d="M35.4645 28.5774H25.8089C24.5352 28.5774 23.4987 29.6136 23.4987 30.8875V37.1241C23.4987 38.3979 24.535 39.4343 25.8089 39.4343H35.4645C36.7383 39.4343 37.7747 38.3979 37.7747 37.1241V30.8875C37.7747 29.6136 36.7384 28.5774 35.4645 28.5774V28.5774ZM35.4309 37.0905H25.8425V30.9211H35.4309V37.0905Z" fill="#3291FF"/>
        <path d="M17.8385 28.5774H8.18284C6.90909 28.5774 5.87268 29.6136 5.87268 30.8875V37.1241C5.87268 38.3979 6.90893 39.4343 8.18284 39.4343H17.8385C19.1122 39.4343 20.1486 38.3979 20.1486 37.1241V30.8875C20.1486 29.6136 19.1122 28.5774 17.8385 28.5774V28.5774ZM17.8049 37.0905H8.21643V30.9211H17.8049V37.0905Z" fill="#3291FF"/>
        <path d="M60.2036 44.1626H62.6492C63.2965 44.1626 63.8211 43.6379 63.8211 42.9907C63.8211 42.3435 63.2965 41.8188 62.6492 41.8188H60.2036C59.5562 41.8188 59.0317 42.3435 59.0317 42.9907C59.0317 43.6379 59.5564 44.1626 60.2036 44.1626Z" fill="#3291FF"/>
        <path d="M63.307 55.6104C61.0958 55.6104 59.2966 57.4018 59.2966 59.6038C59.2966 61.8058 61.0958 63.5972 63.307 63.5972C65.5183 63.5972 67.3175 61.8058 67.3175 59.6038C67.3175 57.4018 65.5183 55.6104 63.307 55.6104V55.6104ZM63.307 61.2536C62.388 61.2536 61.6403 60.5135 61.6403 59.6039C61.6403 58.6943 62.388 57.9543 63.307 57.9543C64.2261 57.9543 64.9738 58.6944 64.9738 59.6039C64.9738 60.5135 64.2259 61.2536 63.307 61.2536Z" fill="#3291FF"/>
        <path d="M18.9767 55.6104C16.7655 55.6104 14.9664 57.4018 14.9664 59.6038C14.9664 61.8058 16.7655 63.5972 18.9767 63.5972C21.1881 63.5972 22.9872 61.8058 22.9872 59.6038C22.9872 57.4018 21.1881 55.6104 18.9767 55.6104ZM18.9767 61.2536C18.0578 61.2536 17.3102 60.5135 17.3102 59.6039C17.3102 58.6943 18.0578 57.9543 18.9767 57.9543C19.8958 57.9543 20.6435 58.6944 20.6435 59.6039C20.6435 60.5135 19.8956 61.2536 18.9767 61.2536Z" fill="#3291FF"/>
    </g>
    <defs>
        <clipPath id="clip0_2919:7502">
            <rect width="80" height="80" fill="white"/>
        </clipPath>
    </defs>
</svg>
