<svg width="80" height="46" viewBox="0 0 80 46" fill="none" xmlns="http://www.w3.org/2000/svg">
    <path d="M78.4067 32.2884V24.4899C78.4067 20.6812 75.308 17.5793 71.4994 17.5757L64.7488 17.5684C64.1086 17.5678 63.5 17.291 63.0788 16.8092L50.7714 2.7315C49.3841 1.10635 47.363 0.174316 45.2263 0.174316H35.8605C35.2133 0.174316 34.6886 0.699004 34.6886 1.34619C34.6886 1.99338 35.2133 2.51807 35.8605 2.51807H45.2263C46.6761 2.51807 48.0475 3.15057 48.998 4.26369L49.6792 5.04291H28.0588C27.3388 5.04291 26.6516 5.35244 26.1736 5.89213C26.0764 6.00182 26.0006 6.12885 25.9503 6.26666L21.5291 18.3537C21.3975 18.7131 21.4498 19.1142 21.6692 19.4278C21.8884 19.7413 22.247 19.9281 22.6295 19.9281H22.63L38.8283 19.922V32.2574H26.4956C24.9175 29.7488 22.1167 28.076 18.9289 28.076C15.74 28.076 12.9381 29.7503 11.3605 32.2604C11.3411 32.2595 11.3219 32.2574 11.3022 32.2574H4.13969C4.00578 31.8207 3.93703 31.3667 3.93703 30.9031V29.9304H7.26672C9.19875 29.9304 10.7705 28.3585 10.7705 26.4267V24.6813C10.7705 22.7493 9.19859 21.1776 7.26672 21.1776H4.75594C4.77938 21.1446 4.80141 21.1109 4.82578 21.0785C5.64406 19.9915 6.98563 19.3542 8.42703 19.3813L15.7234 19.459C15.7277 19.4592 15.7319 19.4592 15.7361 19.4592C16.2142 19.4592 16.645 19.1684 16.8234 18.7238L22.5622 4.42853C23.495 3.22978 24.9444 2.51822 26.4675 2.51822H31.173C31.8202 2.51822 32.3448 1.99354 32.3448 1.34635C32.3448 0.69916 31.8202 0.174473 31.173 0.174473H26.4675C24.1538 0.174473 21.9558 1.28838 20.5877 3.15447C20.5295 3.23369 14.947 17.107 14.947 17.107L8.45953 17.0379C6.27563 17.0003 4.22125 17.9846 2.95328 19.6692C2.6125 20.1218 2.33109 20.6153 2.11688 21.1356C1.76938 21.9796 1.59313 22.8712 1.59313 23.7854V30.9032C1.59313 31.3653 1.63938 31.821 1.72828 32.2679C0.75875 32.3674 0 33.189 0 34.1846V37.7062C0 38.7688 0.864531 39.6334 1.92703 39.6334H10.425C11.5708 43.2199 14.9492 45.826 18.9288 45.826C22.9084 45.826 26.2869 43.2199 27.4327 39.6334H37.807C38.4542 39.6334 38.9789 39.1087 38.9789 38.4615C38.9789 37.8143 38.4542 37.2896 37.807 37.2896H27.8416C27.8458 37.1771 27.8502 37.0646 27.8502 36.951C27.8502 36.1376 27.7373 35.3501 27.5303 34.6012H50.4608C50.2538 35.3501 50.1409 36.1376 50.1409 36.951C50.1409 37.0646 50.1453 37.1771 50.1495 37.2896H42.4944C41.8472 37.2896 41.3225 37.8143 41.3225 38.4615C41.3225 39.1087 41.8472 39.6334 42.4944 39.6334H50.407C50.4572 39.6334 50.5063 39.6292 50.5548 39.6231C51.6973 43.2149 55.0786 45.826 59.0622 45.826C63.0419 45.826 66.4203 43.2199 67.5659 39.6334H78.0727C79.1353 39.6334 79.9999 38.7688 79.9999 37.7062V34.1846C80 33.236 79.3105 32.4471 78.4067 32.2884V32.2884ZM8.42656 24.6813V26.4267C8.42656 27.0663 7.90609 27.5867 7.26656 27.5867H3.93688V23.7851C3.93688 23.6968 3.94016 23.6088 3.945 23.5212H7.26641C7.90625 23.5212 8.42656 24.0417 8.42656 24.6813ZM2.34375 37.2896V34.6012H10.3273C10.1203 35.3501 10.0075 36.1376 10.0075 36.951C10.0075 37.0646 10.0119 37.1771 10.0161 37.2896H2.34375ZM18.9288 43.4823C15.7853 43.4823 13.1513 41.2807 12.5045 38.3492C12.4969 38.2679 12.4811 38.189 12.4577 38.1134C12.3891 37.7359 12.3513 37.3478 12.3513 36.9509C12.3513 33.3495 15.3019 30.4196 18.9288 30.4196C22.5556 30.4196 25.5064 33.3495 25.5064 36.9509C25.5064 40.5523 22.5556 43.4823 18.9288 43.4823ZM76.063 24.4899V24.7496H72.8294C71.6474 24.7496 70.6859 23.7881 70.6859 22.6062V19.9185L71.497 19.9195C74.0147 19.922 76.063 21.9723 76.063 24.4899V24.4899ZM60.6308 17.5699L41.1719 17.5773V7.38666H51.6734C51.6911 7.38666 51.7084 7.38479 51.7259 7.384L60.6308 17.5699ZM24.3063 17.5835L28.0355 7.38822C28.0431 7.38713 28.0511 7.3865 28.0588 7.3865H38.8281V17.5781L24.3063 17.5835ZM41.1719 32.2573V19.9209L68.3422 19.9159V22.606C68.3422 25.0803 70.3552 27.0932 72.8294 27.0932H76.063V32.2571H66.6734C66.6589 32.2571 66.6447 32.2587 66.6303 32.2593C65.0525 29.7496 62.2509 28.0757 59.0623 28.0757C55.8747 28.0757 53.0738 29.7487 51.4958 32.2571H41.1719V32.2573ZM59.0623 43.4823C55.4355 43.4823 52.4849 40.5524 52.4849 36.951C52.4849 33.3496 55.4355 30.4198 59.0623 30.4198C62.6892 30.4198 65.6399 33.3496 65.6399 36.951C65.6399 40.5523 62.6891 43.4823 59.0623 43.4823ZM77.6563 37.2896H67.9749C67.9791 37.1771 67.9834 37.0646 67.9834 36.951C67.9834 36.1376 67.8706 35.3501 67.6636 34.6012H77.6563V37.2896Z" fill="#3291FF"/>
</svg>
